<svg width="193" height="74" viewBox="0 0 193 74" fill="none" xmlns="http://www.w3.org/2000/svg">
<g clip-path="url(#clip0_362_1373)">
<path d="M112.134 22.652C112.723 22.652 113.25 23.1767 113.25 23.7641V29.3847C113.25 29.9721 112.726 30.4942 112.134 30.4942H94.9599V48.3377C94.9599 48.925 94.4361 49.4472 93.8441 49.4472H87.9456C87.3563 49.4472 86.8298 48.925 86.8298 48.3377V4.81116C86.8298 4.22378 87.3537 3.70166 87.9456 3.70166H116.527C117.116 3.70166 117.64 4.22378 117.64 4.81116V10.4318C117.64 11.0192 117.116 11.5413 116.527 11.5413H94.9599V22.652H112.134Z" fill="#156A85"/>
<path d="M162.882 48.403C162.62 49.1209 162.03 49.4498 161.307 49.4498H155.278C154.558 49.4498 153.966 49.1235 153.704 48.403L143.478 24.3515C143.216 23.8294 143.609 23.3047 144.133 23.3047H150.163C150.883 23.3047 151.475 23.631 151.737 24.3515L158.293 40.036L164.849 24.3515C165.111 23.6336 165.7 23.3047 166.423 23.3047H172.452C172.976 23.3047 173.303 23.8294 173.107 24.3515L162.882 48.403Z" fill="#156A85"/>
<path d="M192.12 28.7973C191.923 29.5152 191.4 29.7762 190.808 29.711C189.695 29.5152 188.644 29.3847 187.662 29.3847C184.778 29.3847 182.156 30.9536 182.156 34.8747V48.3376C182.156 48.925 181.633 49.4471 181.041 49.4471H175.666C175.077 49.4471 174.55 48.925 174.55 48.3376V33.8932C174.55 25.0041 180.91 22.4561 187.005 22.6519C188.511 22.7172 190.281 22.8477 192.052 23.3046C192.772 23.5004 193.102 23.9598 192.969 24.6777L192.117 28.7947L192.12 28.7973Z" fill="#156A85"/>
<path d="M141.056 28.7061C140.94 28.526 140.843 28.3641 140.712 28.1997C138.303 24.49 134.091 22.5947 129.191 22.5947C121.453 22.5947 115.421 27.3016 115.421 36.4518C115.421 45.6019 121.453 50.2932 129.191 50.2932C131.781 50.2932 134.157 49.771 136.205 48.7085C136.37 49.1341 136.778 49.4447 137.237 49.4447H141.891C142.48 49.4447 143.007 48.9226 143.007 48.3326V36.256C143.007 33.152 142.302 30.651 141.056 28.7061ZM129.188 43.0383C126.435 43.0383 122.959 41.4693 122.959 36.4518C122.959 31.4342 126.435 29.8496 129.188 29.8496C131.941 29.8496 135.416 31.4185 135.416 36.4518C135.416 41.485 131.941 43.0383 129.188 43.0383Z" fill="#156A85"/>
<g opacity="0.97">
<path d="M36.7634 44.9414C39.3853 42.712 42.9291 40.3912 42.9291 40.3912C42.9291 40.3912 46.7636 37.8223 48.9297 37C44.663 33.4052 42.0752 29.5128 41.2292 26.3488C39.8803 21.2842 44.6211 17.927 47.772 19.3419C50.3232 20.4906 51.7768 22.6939 51.7768 22.6939L53.3693 20.8717C54.2206 19.8954 55.3914 19.2244 56.68 19.0887C57.2039 19.0313 57.7932 19.0495 58.4166 19.1983C60.5119 19.6996 62.8038 22.472 61.9106 26.8604C61.8294 27.2546 61.6565 27.6514 61.5046 28.0744C61.5046 28.0744 60.8393 29.7895 59.9017 31.0635C59.2364 31.9642 58.5842 32.562 57.987 33.152C56.9393 34.1832 54.1708 35.8879 51.2897 37.5221C52.2797 38.3784 55.4097 39.7855 56.24 40.091C59.0714 41.1326 61.633 41.0334 64.5482 40.7305C66.7038 40.506 70.6536 38.9397 74.2471 37.0078C74.2445 16.5669 57.6255 0 37.1223 0C37.1223 0 27.8005 27.5444 36.7634 44.9414Z" fill="#156A85"/>
<path d="M32.7428 65.4531C32.7428 65.4531 33.3898 67.4972 35.9462 67.492C35.9462 67.492 44.8044 68.4187 36.2552 48.3589C35.8728 48.7975 36.1976 48.432 35.8754 48.8732C32.6171 53.366 30.9408 61.3832 32.7402 65.4531H32.7428Z" fill="#156A85"/>
<path d="M74.0873 40.3729C74.0873 40.3729 65.457 44.7378 57.932 42.5162C55.3808 41.7617 52.5337 39.9108 50.0743 37.8902C47.0674 39.0545 43.0129 41.9758 43.0129 41.9758C43.0129 41.9758 40.1605 44.1008 37.7299 46.6749C39.2281 49.3821 42.6383 56.817 43.0129 62.9702C43.3665 68.7892 38.8012 72.2013 33.217 71.7914C30.6135 71.5983 25.4588 69.0738 24.9402 63.9936C24.0628 55.3864 31.3364 50.1417 34.8697 46.5652C31.3783 38.9814 20.1182 34.2458 28.7093 12.8964C28.7093 12.8964 18.8322 16.8645 8.2165 13.7918C8.2165 13.7918 23.8611 12.4317 37.1249 0C16.6242 0 0 16.5669 0 37.0026C0 57.4384 16.6242 74 37.1222 74C56.4861 74 72.3822 59.224 74.0899 40.3703L74.0873 40.3729Z" fill="#156A85"/>
</g>
<path d="M87.8739 63.7791C87.9658 63.7458 88.0688 63.8124 88.105 63.9178C88.3249 64.6087 88.9234 64.9195 89.8476 64.9195C90.8748 64.9195 91.2673 64.298 91.2673 63.8845C91.3147 62.1254 86.9274 63.2159 86.9274 60.272C86.9274 58.6266 88.3137 57.9136 89.8114 57.9136C91.2089 57.9136 92.3502 58.5129 92.6843 59.8336C92.7177 59.9612 92.6509 60.0528 92.5451 60.0861L91.6571 60.3386C91.5429 60.3719 91.4622 60.3386 91.4037 60.211C91.1393 59.6005 90.6883 59.2787 89.8114 59.2787C89.0487 59.2787 88.3221 59.5672 88.3221 60.2553C88.3221 61.9007 92.6954 60.8297 92.6954 63.879C92.6954 65.3745 91.4149 66.2818 89.8448 66.2818C88.4362 66.2818 87.1084 65.627 86.8328 64.2702C86.8105 64.1426 86.855 64.051 86.9831 64.0177L87.8711 63.7763L87.8739 63.7791Z" fill="#156A85"/>
<path d="M101.228 63.446V65.932C101.228 66.0347 101.136 66.129 101.03 66.129H100.084C99.9805 66.129 99.8887 66.0375 99.8887 65.932V63.4931C99.8887 63.1713 99.8079 62.6524 99.1148 62.6524C98.4801 62.6524 98.3409 63.0908 98.3409 63.4127V65.932C98.3409 66.0347 98.249 66.129 98.146 66.129H97.1995C97.0965 66.129 97.0047 66.0375 97.0047 65.932V63.4127C97.0047 63.0908 96.8544 62.6524 96.2308 62.6524C95.5376 62.6524 95.4569 63.1713 95.4569 63.4931V65.932C95.4569 66.0347 95.365 66.129 95.2592 66.129H94.3128C94.2098 66.129 94.1151 66.0375 94.1151 65.932V63.446C94.1151 61.9726 95.0505 61.3872 96.228 61.3872C96.782 61.3872 97.3582 61.6508 97.67 62.1475C97.9818 61.6536 98.5469 61.3872 99.112 61.3872C100.278 61.3872 101.225 61.9726 101.225 63.446H101.228Z" fill="#156A85"/>
<path d="M107.31 63.8011V65.9292C107.31 66.0319 107.218 66.1262 107.113 66.1262H106.294C106.191 66.1262 106.099 66.0347 106.099 65.9292V65.4243C105.787 65.9653 105.2 66.2761 104.54 66.2761C103.224 66.2761 102.439 65.2744 102.439 63.8372C102.439 62.3195 103.524 61.3872 104.886 61.3872C106.247 61.3872 107.31 62.2168 107.31 63.8039V63.8011ZM106.005 63.8372C106.005 62.9743 105.37 62.6524 104.886 62.6524C104.401 62.6524 103.73 62.9965 103.73 63.8261C103.73 64.7473 104.295 65.0219 104.849 65.0219C105.345 65.0219 106.005 64.6307 106.005 63.8372Z" fill="#156A85"/>
<path d="M110.15 65.9295C110.15 66.0321 110.058 66.1265 109.952 66.1265H109.006C108.903 66.1265 108.808 66.0349 108.808 65.9295V58.2688C108.808 58.1661 108.9 58.0718 109.006 58.0718H109.952C110.055 58.0718 110.15 58.1633 110.15 58.2688V65.9295Z" fill="#156A85"/>
<path d="M113.103 65.9295C113.103 66.0321 113.011 66.1265 112.906 66.1265H111.959C111.856 66.1265 111.761 66.0349 111.761 65.9295V58.2688C111.761 58.1661 111.853 58.0718 111.959 58.0718H112.906C113.009 58.0718 113.103 58.1633 113.103 58.2688V65.9295Z" fill="#156A85"/>
<path d="M122.821 63.8011V65.9292C122.821 66.0319 122.73 66.1262 122.624 66.1262H121.805C121.702 66.1262 121.611 66.0347 121.611 65.9292V65.4243C121.299 65.9653 120.711 66.2761 120.052 66.2761C118.735 66.2761 117.95 65.2744 117.95 63.8372C117.95 62.3195 119.036 61.3872 120.397 61.3872C121.758 61.3872 122.821 62.2168 122.821 63.8039V63.8011ZM121.519 63.8372C121.519 62.9743 120.884 62.6524 120.4 62.6524C119.915 62.6524 119.244 62.9965 119.244 63.8261C119.244 64.7473 119.809 65.0219 120.363 65.0219C120.859 65.0219 121.519 64.6307 121.519 63.8372Z" fill="#156A85"/>
<path d="M127.334 64.5614C127.404 64.4587 127.495 64.4226 127.612 64.4587L128.456 64.8166C128.559 64.8499 128.606 64.9665 128.559 65.0691C128.155 65.8627 127.37 66.265 126.401 66.265C125.04 66.265 123.977 65.4381 123.977 63.8261C123.977 62.214 125.037 61.3872 126.401 61.3872C127.406 61.3872 128.225 61.8117 128.606 62.6885C128.653 62.7912 128.595 62.9077 128.492 62.941L127.615 63.2406C127.512 63.2739 127.395 63.2185 127.337 63.1269C127.117 62.769 126.724 62.6663 126.401 62.6663C125.917 62.6663 125.305 62.941 125.305 63.8289C125.305 64.7167 125.917 64.9914 126.401 64.9914C126.724 64.9914 127.106 64.8888 127.337 64.5669L127.334 64.5614Z" fill="#156A85"/>
<path d="M132.206 65.9294C132.206 66.032 132.114 66.1264 132.011 66.1264H131.064C130.961 66.1264 130.869 66.0348 130.869 65.9294V62.8135H129.681C129.578 62.8135 129.483 62.7219 129.483 62.6165V61.7203C129.483 61.6176 129.575 61.5261 129.681 61.5261H130.869V59.767C130.869 59.6643 130.961 59.5728 131.064 59.5728H132.011C132.114 59.5728 132.206 59.6643 132.206 59.767V61.5261H133.394C133.497 61.5261 133.592 61.6176 133.592 61.7203V62.6165C133.592 62.7192 133.5 62.8135 133.394 62.8135H132.206V65.9294Z" fill="#156A85"/>
<path d="M135.362 67.5972C135.34 67.7248 135.259 67.7942 135.131 67.7942H134.53C134.427 67.7942 134.346 67.7026 134.357 67.5972L134.566 65.261C134.577 65.1333 134.658 65.064 134.786 65.064H135.696C135.799 65.064 135.869 65.1555 135.858 65.261L135.362 67.5972Z" fill="#156A85"/>
<path d="M145.843 63.7903C145.843 65.308 144.758 66.2624 143.396 66.2624C142.035 66.2624 140.972 65.3884 140.972 63.8235V58.2688C140.972 58.1661 141.064 58.0718 141.169 58.0718H142.116C142.219 58.0718 142.313 58.1633 142.313 58.2688V61.9035C142.753 61.4318 143.363 61.3847 143.697 61.3847C145.128 61.4429 145.843 62.5361 145.843 63.7903ZM144.515 63.8235C144.515 62.9967 143.914 62.6499 143.43 62.6499C142.945 62.6499 142.311 62.9384 142.311 63.8124C142.311 64.6865 142.912 64.9972 143.396 64.9972C143.881 64.9972 144.515 64.6532 144.515 63.8235Z" fill="#156A85"/>
<path d="M147.92 60.3495C147.469 60.3495 147.113 59.9916 147.113 59.5449C147.113 59.0982 147.472 58.7402 147.92 58.7402C148.368 58.7402 148.727 59.0982 148.727 59.5449C148.727 59.9916 148.368 60.3495 147.92 60.3495ZM148.591 65.9292C148.591 66.0319 148.499 66.1262 148.396 66.1262H147.45C147.347 66.1262 147.252 66.0347 147.252 65.9292V61.7202C147.252 61.6175 147.344 61.5259 147.45 61.5259H148.396C148.499 61.5259 148.591 61.6175 148.591 61.7202V65.9292Z" fill="#156A85"/>
<path d="M153.944 65.8155C154.395 66.1846 154.707 66.7256 154.707 67.4137C154.707 68.7705 153.68 69.6001 152.421 69.6001C151.163 69.6001 150.194 68.8399 150.194 67.5191C150.194 67.3221 150.217 67.1168 150.264 66.9087C150.297 66.7811 150.378 66.7367 150.506 66.7589L151.43 66.8976C151.533 66.9087 151.592 67.0142 151.558 67.1057C151.525 67.1973 151.511 67.2999 151.511 67.4054C151.511 67.9242 151.789 68.3488 152.424 68.3488C153.011 68.3488 153.429 67.8882 153.429 67.3027C153.429 66.7617 153.059 66.3926 152.772 66.2456C152.644 66.2567 152.552 66.2678 152.427 66.2678C151.066 66.2678 150.002 65.441 150.002 63.8289C150.002 62.2169 151.063 61.39 152.427 61.39C152.853 61.39 153.223 61.4594 153.535 61.6092L154.298 60.7796C154.378 60.6991 154.506 60.677 154.587 60.7574L155.119 61.1819C155.2 61.2624 155.222 61.3789 155.141 61.4594L154.426 62.3334C154.69 62.7357 154.852 63.2185 154.852 63.8289C154.852 64.7612 154.506 65.416 153.952 65.8183L153.944 65.8155ZM153.518 63.8234C153.518 62.9383 152.906 62.6608 152.421 62.6608C151.937 62.6608 151.324 62.9355 151.324 63.8234C151.324 64.7112 151.937 64.9859 152.421 64.9859C152.906 64.9859 153.518 64.7085 153.518 63.8234Z" fill="#156A85"/>
<path d="M160.686 60.3495C160.235 60.3495 159.879 59.9916 159.879 59.5449C159.879 59.0982 160.238 58.7402 160.686 58.7402C161.135 58.7402 161.494 59.0982 161.494 59.5449C161.494 59.9916 161.135 60.3495 160.686 60.3495ZM161.354 65.9292C161.354 66.0319 161.263 66.1262 161.16 66.1262H160.213C160.11 66.1262 160.015 66.0347 160.015 65.9292V61.7202C160.015 61.6175 160.107 61.5259 160.213 61.5259H161.16C161.263 61.5259 161.354 61.6175 161.354 61.7202V65.9292Z" fill="#156A85"/>
<path d="M169.987 63.446V65.932C169.987 66.0347 169.895 66.129 169.789 66.129H168.843C168.74 66.129 168.648 66.0375 168.648 65.932V63.4931C168.648 63.1713 168.567 62.6524 167.874 62.6524C167.239 62.6524 167.1 63.0908 167.1 63.4127V65.932C167.1 66.0347 167.008 66.129 166.905 66.129H165.959C165.856 66.129 165.764 66.0375 165.764 65.932V63.4127C165.764 63.0908 165.614 62.6524 164.99 62.6524C164.297 62.6524 164.216 63.1713 164.216 63.4931V65.932C164.216 66.0347 164.124 66.129 164.019 66.129H163.072C162.969 66.129 162.874 66.0375 162.874 65.932V63.446C162.874 61.9726 163.81 61.3872 164.987 61.3872C165.541 61.3872 166.117 61.6508 166.429 62.1475C166.741 61.6536 167.306 61.3872 167.871 61.3872C169.038 61.3872 169.984 61.9726 169.984 63.446H169.987Z" fill="#156A85"/>
<path d="M176.359 63.8597C176.359 65.0916 175.644 66.2292 174.213 66.2625C173.879 66.2625 173.266 66.2154 172.829 65.7437V69.3784C172.829 69.4811 172.737 69.5754 172.632 69.5754H171.685C171.582 69.5754 171.487 69.4839 171.487 69.3784V63.8236C171.487 62.2588 172.548 61.3848 173.912 61.3848C175.276 61.3848 176.359 62.3392 176.359 63.8569V63.8597ZM175.031 63.8236C175.031 62.9968 174.396 62.65 173.912 62.65C173.428 62.65 172.826 62.9385 172.826 63.8347C172.826 64.7309 173.45 64.9973 173.946 64.9973C174.441 64.9973 175.031 64.6533 175.031 63.8236Z" fill="#156A85"/>
<path d="M182.269 63.8011V65.9292C182.269 66.0319 182.177 66.1262 182.071 66.1262H181.253C181.15 66.1262 181.058 66.0347 181.058 65.9292V65.4243C180.746 65.9653 180.159 66.2761 179.499 66.2761C178.182 66.2761 177.397 65.2744 177.397 63.8372C177.397 62.3195 178.483 61.3872 179.844 61.3872C181.206 61.3872 182.269 62.2168 182.269 63.8039V63.8011ZM180.963 63.8372C180.963 62.9743 180.329 62.6524 179.844 62.6524C179.36 62.6524 178.689 62.9965 178.689 63.8261C178.689 64.7473 179.254 65.0219 179.808 65.0219C180.304 65.0219 180.963 64.6307 180.963 63.8372Z" fill="#156A85"/>
<path d="M186.782 64.5614C186.851 64.4587 186.943 64.4226 187.06 64.4587L187.903 64.8166C188.006 64.8499 188.054 64.9665 188.006 65.0691C187.603 65.8627 186.818 66.265 185.849 66.265C184.488 66.265 183.424 65.4381 183.424 63.8261C183.424 62.214 184.485 61.3872 185.849 61.3872C186.854 61.3872 187.672 61.8117 188.054 62.6885C188.101 62.7912 188.043 62.9077 187.94 62.941L187.063 63.2406C186.96 63.2739 186.843 63.2185 186.784 63.1269C186.564 62.769 186.172 62.6663 185.849 62.6663C185.365 62.6663 184.752 62.941 184.752 63.8289C184.752 64.7167 185.365 64.9914 185.849 64.9914C186.172 64.9914 186.553 64.8888 186.784 64.5669L186.782 64.5614Z" fill="#156A85"/>
<path d="M191.65 65.9294C191.65 66.032 191.558 66.1264 191.455 66.1264H190.509C190.406 66.1264 190.314 66.0348 190.314 65.9294V62.8135H189.125C189.022 62.8135 188.928 62.7219 188.928 62.6165V61.7203C188.928 61.6176 189.02 61.5261 189.125 61.5261H190.314V59.767C190.314 59.6643 190.406 59.5728 190.509 59.5728H191.455C191.558 59.5728 191.65 59.6643 191.65 59.767V61.5261H192.839C192.942 61.5261 193.037 61.6176 193.037 61.7203V62.6165C193.037 62.7192 192.945 62.8135 192.839 62.8135H191.65V65.9294Z" fill="#156A85"/>
</g>
<defs>
<clipPath id="clip0_362_1373">
<rect width="193" height="74" fill="white"/>
</clipPath>
</defs>
</svg>
