<svg width="400" height="154" viewBox="0 0 400 154" fill="none" xmlns="http://www.w3.org/2000/svg">
<g clip-path="url(#clip0_3705_75874)">
<g filter="url(#filter0_d_3705_75874)">
<path d="M182.549 131.545C182.777 131.458 183.037 131.631 183.119 131.885C183.662 133.594 185.149 134.361 187.434 134.361C189.98 134.361 190.952 132.826 190.952 131.799C191.066 127.442 180.204 130.145 180.204 122.858C180.204 118.787 183.635 117.019 187.353 117.019C190.811 117.019 193.645 118.501 194.475 121.777C194.562 122.09 194.388 122.317 194.133 122.404L191.929 123.031C191.642 123.117 191.441 123.031 191.3 122.717C190.643 121.209 189.524 120.409 187.353 120.409C185.464 120.409 183.667 121.122 183.667 122.831C183.667 126.901 194.502 124.252 194.502 131.804C194.502 135.507 191.327 137.756 187.44 137.756C183.949 137.756 180.665 136.134 179.976 132.772C179.916 132.458 180.036 132.231 180.345 132.145L182.549 131.545Z" fill="white"/>
<path d="M213.48 130.718V136.87C213.48 137.124 213.252 137.356 212.997 137.356H210.652C210.397 137.356 210.163 137.129 210.163 136.87V130.831C210.163 130.031 209.962 128.75 208.247 128.75C206.673 128.75 206.331 129.831 206.331 130.631V136.87C206.331 137.124 206.103 137.356 205.842 137.356H203.497C203.242 137.356 203.009 137.129 203.009 136.87V130.631C203.009 129.831 202.64 128.75 201.092 128.75C199.377 128.75 199.176 130.031 199.176 130.831V136.87C199.176 137.124 198.948 137.356 198.688 137.356H196.343C196.087 137.356 195.859 137.129 195.859 136.87V130.718C195.859 127.074 198.177 125.62 201.092 125.62C202.466 125.62 203.893 126.274 204.664 127.501C205.435 126.274 206.836 125.62 208.236 125.62C211.124 125.62 213.469 127.074 213.469 130.718H213.48Z" fill="white"/>
<path d="M226.399 131.604V136.875C226.399 137.129 226.171 137.362 225.916 137.362H223.886C223.631 137.362 223.398 137.135 223.398 136.875V135.621C222.627 136.962 221.166 137.729 219.538 137.729C216.281 137.729 214.332 135.253 214.332 131.691C214.332 127.928 217.019 125.625 220.39 125.625C223.761 125.625 226.394 127.674 226.394 131.604H226.399ZM223.17 131.685C223.17 129.55 221.595 128.75 220.396 128.75C219.196 128.75 217.535 129.604 217.535 131.653C217.535 133.934 218.935 134.615 220.309 134.615C221.541 134.615 223.17 133.648 223.17 131.68V131.685Z" fill="white"/>
<path d="M231.286 136.87C231.286 137.124 231.058 137.356 230.803 137.356H228.458C228.203 137.356 227.975 137.129 227.975 136.87V117.901C227.975 117.647 228.203 117.414 228.458 117.414H230.803C231.058 117.414 231.286 117.641 231.286 117.901V136.87Z" fill="white"/>
<path d="M236.458 136.87C236.458 137.124 236.23 137.356 235.975 137.356H233.63C233.374 137.356 233.146 137.129 233.146 136.87V117.901C233.146 117.647 233.374 117.414 233.63 117.414H235.975C236.23 117.414 236.458 117.641 236.458 117.901V136.87Z" fill="white"/>
<path d="M256.245 131.604V136.875C256.245 137.129 256.017 137.362 255.757 137.362H253.726C253.471 137.362 253.243 137.135 253.243 136.875V135.621C252.472 136.962 251.012 137.729 249.384 137.729C246.127 137.729 244.178 135.253 244.178 131.691C244.178 127.928 246.865 125.625 250.241 125.625C253.618 125.625 256.245 127.674 256.245 131.604ZM253.01 131.685C253.01 129.55 251.436 128.75 250.236 128.75C249.036 128.75 247.375 129.604 247.375 131.653C247.375 133.934 248.776 134.615 250.149 134.615C251.381 134.615 253.01 133.648 253.01 131.68V131.685Z" fill="white"/>
<path d="M265.279 133.48C265.453 133.226 265.681 133.14 265.963 133.226L268.053 134.107C268.308 134.194 268.422 134.48 268.308 134.734C267.309 136.702 265.366 137.697 262.961 137.697C259.584 137.697 256.957 135.648 256.957 131.658C256.957 127.669 259.59 125.62 262.961 125.62C265.447 125.62 267.477 126.674 268.422 128.837C268.536 129.091 268.395 129.377 268.134 129.464L265.963 130.204C265.708 130.291 265.42 130.15 265.279 129.918C264.736 129.037 263.764 128.777 262.961 128.777C261.761 128.777 260.247 129.458 260.247 131.653C260.247 133.848 261.761 134.529 262.961 134.529C263.759 134.529 264.703 134.275 265.279 133.475V133.48Z" fill="white"/>
<path d="M275.195 136.87C275.195 137.124 274.967 137.356 274.712 137.356H272.367C272.112 137.356 271.884 137.129 271.884 136.87V129.15H268.942C268.687 129.15 268.453 128.923 268.453 128.664V126.442C268.453 126.188 268.681 125.955 268.942 125.955H271.884V121.598C271.884 121.344 272.112 121.112 272.367 121.112H274.712C274.967 121.112 275.195 121.339 275.195 121.598V125.955H278.137C278.393 125.955 278.626 126.182 278.626 126.442V128.664C278.626 128.918 278.398 129.15 278.137 129.15H275.195V136.87Z" fill="white"/>
<path d="M280.745 141C280.685 141.313 280.489 141.486 280.175 141.486H278.687C278.432 141.486 278.231 141.259 278.258 141L278.774 135.215C278.801 134.902 279.002 134.729 279.317 134.729H281.575C281.83 134.729 282.004 134.956 281.977 135.215L280.75 141H280.745Z" fill="white"/>
<path d="M302.41 131.572C302.41 135.334 299.723 137.697 296.352 137.697C292.98 137.697 290.348 135.534 290.348 131.658V117.901C290.348 117.647 290.576 117.414 290.831 117.414H293.176C293.431 117.414 293.659 117.641 293.659 117.901V126.901C294.745 125.734 296.259 125.62 297.09 125.62C300.635 125.761 302.41 128.469 302.41 131.572ZM299.125 131.658C299.125 129.61 297.638 128.756 296.438 128.756C295.239 128.756 293.664 129.469 293.664 131.631C293.664 133.794 295.152 134.567 296.352 134.567C297.551 134.567 299.125 133.713 299.125 131.664V131.658Z" fill="white"/>
<path d="M305.411 123.058C304.298 123.058 303.408 122.177 303.408 121.063C303.408 119.949 304.293 119.068 305.411 119.068C306.53 119.068 307.414 119.949 307.414 121.063C307.414 122.177 306.53 123.058 305.411 123.058ZM307.067 136.87C307.067 137.124 306.839 137.356 306.584 137.356H304.239C303.984 137.356 303.756 137.129 303.756 136.87V126.447C303.756 126.193 303.984 125.961 304.239 125.961H306.584C306.839 125.961 307.067 126.188 307.067 126.447V136.87Z" fill="white"/>
<path d="M318.189 136.589C319.302 137.502 320.078 138.837 320.078 140.546C320.078 143.908 317.532 145.957 314.416 145.957C311.3 145.957 308.901 144.076 308.901 140.8C308.901 140.313 308.961 139.805 309.075 139.291C309.162 138.978 309.362 138.864 309.677 138.918L311.963 139.259C312.218 139.286 312.364 139.546 312.278 139.773C312.191 140 312.164 140.259 312.164 140.513C312.164 141.794 312.848 142.849 314.422 142.849C315.882 142.849 316.908 141.708 316.908 140.259C316.908 138.918 315.991 138.01 315.279 137.637C314.965 137.664 314.737 137.691 314.422 137.691C311.045 137.691 308.418 135.643 308.418 131.653C308.418 127.664 311.051 125.615 314.422 125.615C315.48 125.615 316.392 125.788 317.169 126.155L319.058 124.106C319.259 123.906 319.573 123.852 319.774 124.047L321.088 125.101C321.289 125.301 321.343 125.588 321.148 125.782L319.373 127.945C320.029 128.939 320.431 130.139 320.431 131.648C320.431 133.956 319.573 135.578 318.2 136.572L318.189 136.589ZM317.131 131.658C317.131 129.464 315.616 128.783 314.416 128.783C313.217 128.783 311.702 129.464 311.702 131.658C311.702 133.853 313.217 134.534 314.416 134.534C315.616 134.534 317.131 133.853 317.131 131.658Z" fill="white"/>
<path d="M330.593 123.058C329.48 123.058 328.59 122.177 328.59 121.063C328.59 119.949 329.475 119.068 330.593 119.068C331.711 119.068 332.596 119.949 332.596 121.063C332.596 122.177 331.711 123.058 330.593 123.058ZM332.254 136.87C332.254 137.124 332.026 137.356 331.771 137.356H329.426C329.171 137.356 328.943 137.129 328.943 136.87V126.447C328.943 126.193 329.171 125.961 329.426 125.961H331.771C332.026 125.961 332.254 126.188 332.254 126.447V136.87Z" fill="white"/>
<path d="M351.493 130.718V136.87C351.493 137.124 351.265 137.356 351.004 137.356H348.659C348.404 137.356 348.176 137.129 348.176 136.87V130.831C348.176 130.031 347.975 128.75 346.26 128.75C344.685 128.75 344.343 129.831 344.343 130.631V136.87C344.343 137.124 344.115 137.356 343.86 137.356H341.515C341.26 137.356 341.032 137.129 341.032 136.87V130.631C341.032 129.831 340.658 128.75 339.116 128.75C337.4 128.75 337.2 130.031 337.2 130.831V136.87C337.2 137.124 336.972 137.356 336.716 137.356H334.371C334.116 137.356 333.883 137.129 333.883 136.87V130.718C333.883 127.074 336.201 125.62 339.116 125.62C340.489 125.62 341.917 126.274 342.688 127.501C343.459 126.274 344.859 125.62 346.26 125.62C349.148 125.62 351.493 127.074 351.493 130.718Z" fill="white"/>
<path d="M365.128 131.745C365.128 134.794 363.353 137.61 359.809 137.697C358.978 137.697 357.463 137.583 356.378 136.416V145.416C356.378 145.67 356.15 145.903 355.895 145.903H353.55C353.294 145.903 353.066 145.676 353.066 145.416V131.658C353.066 127.782 355.699 125.62 359.07 125.62C362.441 125.62 365.128 127.982 365.128 131.745ZM361.839 131.658C361.839 129.61 360.265 128.756 359.065 128.756C357.865 128.756 356.378 129.469 356.378 131.691C356.378 133.913 357.919 134.567 359.152 134.567C360.384 134.567 361.839 133.713 361.839 131.664V131.658Z" fill="white"/>
<path d="M377.62 131.604V136.875C377.62 137.129 377.392 137.362 377.132 137.362H375.101C374.846 137.362 374.618 137.135 374.618 136.875V135.621C373.847 136.962 372.387 137.729 370.759 137.729C367.502 137.729 365.553 135.253 365.553 131.691C365.553 127.928 368.24 125.625 371.616 125.625C374.993 125.625 377.62 127.674 377.62 131.604ZM374.39 131.685C374.39 129.55 372.816 128.75 371.616 128.75C370.417 128.75 368.755 129.604 368.755 131.653C368.755 133.934 370.156 134.615 371.529 134.615C372.762 134.615 374.39 133.648 374.39 131.68V131.685Z" fill="white"/>
<path d="M386.652 133.48C386.826 133.226 387.054 133.14 387.336 133.226L389.426 134.107C389.681 134.194 389.795 134.48 389.681 134.734C388.682 136.702 386.733 137.697 384.334 137.697C380.957 137.697 378.33 135.648 378.33 131.658C378.33 127.669 380.963 125.62 384.334 125.62C386.82 125.62 388.85 126.674 389.795 128.837C389.909 129.091 389.768 129.377 389.507 129.464L387.336 130.204C387.081 130.291 386.793 130.15 386.652 129.918C386.109 129.037 385.137 128.777 384.334 128.777C383.134 128.777 381.62 129.458 381.62 131.653C381.62 133.848 383.134 134.529 384.334 134.529C385.132 134.529 386.076 134.275 386.652 133.475V133.48Z" fill="white"/>
<path d="M396.57 136.87C396.57 137.124 396.342 137.356 396.087 137.356H393.742C393.487 137.356 393.259 137.129 393.259 136.87V129.15H390.317C390.062 129.15 389.828 128.923 389.828 128.664V126.442C389.828 126.188 390.056 125.955 390.317 125.955H393.259V121.598C393.259 121.344 393.487 121.112 393.742 121.112H396.087C396.342 121.112 396.57 121.339 396.57 121.598V125.955H399.512C399.768 125.955 400.001 126.182 400.001 126.442V128.664C400.001 128.918 399.773 129.15 399.512 129.15H396.57V136.87Z" fill="white"/>
</g>
<g filter="url(#filter1_d_3705_75874)">
<path d="M232.403 47.2895C233.625 47.2895 234.716 48.3761 234.716 49.5924V61.2312C234.716 62.4475 233.63 63.5287 232.403 63.5287H196.809V100.478C196.809 101.694 195.723 102.775 194.496 102.775H182.271C181.05 102.775 179.959 101.694 179.959 100.478V10.3461C179.959 9.12975 181.045 8.04858 182.271 8.04858H241.507C242.728 8.04858 243.814 9.12975 243.814 10.3461V21.9848C243.814 23.2011 242.728 24.2823 241.507 24.2823H196.809V47.2895H232.403Z" fill="white"/>
<path d="M337.58 100.613C337.037 102.099 335.816 102.78 334.318 102.78H321.821C320.328 102.78 319.102 102.105 318.559 100.613L297.366 50.8087C296.823 49.7276 297.638 48.641 298.723 48.641H311.22C312.712 48.641 313.939 49.3167 314.482 50.8087L328.069 83.287L341.657 50.8087C342.2 49.3221 343.421 48.641 344.919 48.641H357.416C358.501 48.641 359.18 49.7276 358.773 50.8087L337.58 100.613Z" fill="white"/>
<path d="M398.178 60.0149C397.771 61.5015 396.685 62.0421 395.458 61.9069C393.151 61.5015 390.974 61.2312 388.938 61.2312C382.962 61.2312 377.528 64.4801 377.528 72.5997V100.478C377.528 101.694 376.442 102.775 375.215 102.775H364.076C362.855 102.775 361.764 101.694 361.764 100.478V70.5671C361.764 52.1602 374.944 46.8841 387.576 47.2896C390.697 47.4247 394.367 47.695 398.037 48.641C399.529 49.0465 400.213 49.9979 399.936 51.4845L398.172 60.0095L398.178 60.0149Z" fill="white"/>
<path d="M292.345 59.8257C292.106 59.4527 291.905 59.1175 291.634 58.777C286.64 51.0953 277.911 47.1707 267.754 47.1707C251.718 47.1707 239.217 56.9174 239.217 75.8648C239.217 94.8123 251.718 104.527 267.754 104.527C273.123 104.527 278.046 103.445 282.291 101.245C282.633 102.126 283.48 102.77 284.43 102.77H294.077C295.298 102.77 296.389 101.689 296.389 100.467V75.4594C296.389 69.0319 294.929 63.8531 292.345 59.8257ZM267.749 89.5038C262.043 89.5038 254.84 86.2548 254.84 75.8648C254.84 65.4748 262.043 62.1935 267.749 62.1935C273.454 62.1935 280.658 65.4424 280.658 75.8648C280.658 86.2873 273.454 89.5038 267.749 89.5038Z" fill="white"/>
</g>
<g opacity="0.97" filter="url(#filter2_d_3705_75874)">
<path d="M76.1945 93.4445C81.6284 88.8279 88.9731 84.0222 88.9731 84.0222C88.9731 84.0222 96.9203 78.7028 101.41 77C92.5667 69.5561 87.2034 61.496 85.45 54.9442C82.6544 44.4568 92.4798 37.5049 99.0102 40.4349C104.298 42.8135 107.31 47.376 107.31 47.376L110.611 43.6027C112.375 41.5809 114.802 40.1916 117.472 39.9105C118.558 39.7916 119.779 39.8294 121.071 40.1376C125.414 41.1755 130.164 46.9165 128.313 56.0037C128.145 56.82 127.786 57.6417 127.472 58.5174C127.472 58.5174 126.093 62.069 124.149 64.7071C122.771 66.5721 121.419 67.8101 120.181 69.0318C118.01 71.1671 112.272 74.6971 106.301 78.0811C108.353 79.8542 114.84 82.768 116.56 83.4005C122.429 85.5574 127.738 85.352 133.779 84.7249C138.247 84.26 146.433 81.0165 153.881 77.0162C153.875 34.6885 119.432 0.383057 76.9382 0.383057C76.9382 0.383057 57.6184 57.42 76.1945 93.4445Z" fill="white"/>
<path d="M67.86 135.918C67.86 135.918 69.2009 140.151 74.499 140.14C74.499 140.14 92.858 142.059 75.1396 100.521C74.347 101.429 75.0201 100.672 74.3525 101.586C67.5995 110.889 64.1253 127.49 67.8546 135.918H67.86Z" fill="white"/>
<path d="M153.549 83.9843C153.549 83.9843 135.662 93.0229 120.066 88.4225C114.779 86.8602 108.878 83.0275 103.781 78.8434C97.549 81.2544 89.1458 87.3035 89.1458 87.3035C89.1458 87.3035 83.2343 91.7038 78.1967 97.034C81.3017 102.64 88.3696 118.036 89.1458 130.777C89.8787 142.827 80.4169 149.892 68.8435 149.044C63.4476 148.644 52.7644 143.416 51.6896 132.896C49.8711 115.073 64.9459 104.213 72.2688 96.807C65.0327 81.103 41.6958 71.2968 59.5011 27.0879C59.5011 27.0879 39.0305 35.3048 17.029 28.9421C17.029 28.9421 49.4531 26.1256 76.9427 0.383057C34.4543 0.383057 0 34.6885 0 77.0054C0 119.322 34.4543 153.617 76.9373 153.617C117.07 153.617 150.015 123.02 153.554 83.9789L153.549 83.9843Z" fill="white"/>
</g>
</g>
<defs>
<filter id="filter0_d_3705_75874" x="175.961" y="117.019" width="228.041" height="36.9374" filterUnits="userSpaceOnUse" color-interpolation-filters="sRGB">
<feFlood flood-opacity="0" result="BackgroundImageFix"/>
<feColorMatrix in="SourceAlpha" type="matrix" values="0 0 0 0 0 0 0 0 0 0 0 0 0 0 0 0 0 0 127 0" result="hardAlpha"/>
<feOffset dy="4"/>
<feGaussianBlur stdDeviation="2"/>
<feComposite in2="hardAlpha" operator="out"/>
<feColorMatrix type="matrix" values="0 0 0 0 0 0 0 0 0 0 0 0 0 0 0 0 0 0 0.25 0"/>
<feBlend mode="normal" in2="BackgroundImageFix" result="effect1_dropShadow_3705_75874"/>
<feBlend mode="normal" in="SourceGraphic" in2="effect1_dropShadow_3705_75874" result="shape"/>
</filter>
<filter id="filter1_d_3705_75874" x="175.959" y="8.04858" width="228.037" height="104.478" filterUnits="userSpaceOnUse" color-interpolation-filters="sRGB">
<feFlood flood-opacity="0" result="BackgroundImageFix"/>
<feColorMatrix in="SourceAlpha" type="matrix" values="0 0 0 0 0 0 0 0 0 0 0 0 0 0 0 0 0 0 127 0" result="hardAlpha"/>
<feOffset dy="4"/>
<feGaussianBlur stdDeviation="2"/>
<feComposite in2="hardAlpha" operator="out"/>
<feColorMatrix type="matrix" values="0 0 0 0 0 0 0 0 0 0 0 0 0 0 0 0 0 0 0.25 0"/>
<feBlend mode="normal" in2="BackgroundImageFix" result="effect1_dropShadow_3705_75874"/>
<feBlend mode="normal" in="SourceGraphic" in2="effect1_dropShadow_3705_75874" result="shape"/>
</filter>
<filter id="filter2_d_3705_75874" x="-4" y="0.383057" width="161.881" height="161.234" filterUnits="userSpaceOnUse" color-interpolation-filters="sRGB">
<feFlood flood-opacity="0" result="BackgroundImageFix"/>
<feColorMatrix in="SourceAlpha" type="matrix" values="0 0 0 0 0 0 0 0 0 0 0 0 0 0 0 0 0 0 127 0" result="hardAlpha"/>
<feOffset dy="4"/>
<feGaussianBlur stdDeviation="2"/>
<feComposite in2="hardAlpha" operator="out"/>
<feColorMatrix type="matrix" values="0 0 0 0 0 0 0 0 0 0 0 0 0 0 0 0 0 0 0.25 0"/>
<feBlend mode="normal" in2="BackgroundImageFix" result="effect1_dropShadow_3705_75874"/>
<feBlend mode="normal" in="SourceGraphic" in2="effect1_dropShadow_3705_75874" result="shape"/>
</filter>
<clipPath id="clip0_3705_75874">
<rect width="400" height="153.234" fill="white" transform="translate(0 0.383057)"/>
</clipPath>
</defs>
</svg>
