<svg width="219" height="275" viewBox="0 0 219 275" fill="none" xmlns="http://www.w3.org/2000/svg">
<g clip-path="url(#clip0_2962_11309)">
<g opacity="0.97">
<path d="M78.3763 212.286C83.9658 207.518 91.5209 202.554 91.5209 202.554C91.5209 202.554 99.6958 197.059 104.314 195.3C95.2175 187.611 89.7005 179.285 87.8969 172.518C85.0212 161.685 95.1281 154.504 101.846 157.53C107.284 159.987 110.383 164.7 110.383 164.7L113.778 160.802C115.593 158.714 118.089 157.279 120.837 156.989C121.953 156.866 123.21 156.905 124.539 157.223C129.006 158.295 133.892 164.225 131.988 173.612C131.815 174.455 131.446 175.304 131.122 176.209C131.122 176.209 129.704 179.877 127.705 182.602C126.287 184.529 124.896 185.807 123.623 187.069C121.389 189.275 115.487 192.921 109.345 196.417C111.456 198.248 118.128 201.258 119.898 201.911C125.935 204.139 131.396 203.927 137.611 203.279C142.206 202.799 150.627 199.449 158.288 195.317C158.282 151.594 122.852 116.159 79.1413 116.159C79.1413 116.159 59.2681 175.075 78.3763 212.286Z" fill="#AAC8D1"/>
<path d="M69.8047 256.159C69.8047 256.159 71.184 260.532 76.6339 260.52C76.6339 260.52 95.5188 262.503 77.2928 219.596C76.4775 220.534 77.17 219.752 76.4831 220.696C69.5367 230.306 65.963 247.454 69.7992 256.159H69.8047Z" fill="#AAC8D1"/>
<path d="M157.947 202.514C157.947 202.514 139.548 211.851 123.506 207.099C118.067 205.485 111.997 201.526 106.754 197.204C100.343 199.695 91.6995 205.943 91.6995 205.943C91.6995 205.943 85.6185 210.488 80.4367 215.994C83.6307 221.785 90.901 237.688 91.6995 250.849C92.4533 263.296 82.7205 270.594 70.8155 269.717C65.2651 269.304 54.2759 263.904 53.1703 253.038C51.2997 234.628 66.8063 223.41 74.339 215.76C66.8956 199.538 42.8902 189.409 61.2056 143.743C61.2056 143.743 40.1485 152.231 17.5168 145.659C17.5168 145.659 50.8697 142.75 79.1468 116.159C35.4413 116.159 0 151.594 0 195.306C0 239.017 35.4413 274.441 79.1412 274.441C120.423 274.441 154.312 242.836 157.953 202.509L157.947 202.514Z" fill="#AAC8D1"/>
</g>
</g>
<path fill-rule="evenodd" clip-rule="evenodd" d="M151.236 37.1786C130.226 35.5826 108.699 42.9142 88.557 59.924C85.864 62.1983 81.8372 61.8588 79.5629 59.1657C77.2887 56.4727 77.6282 52.4459 80.3212 50.1716C102.578 31.3759 127.316 22.5601 152.203 24.4506C155.718 24.7175 158.351 27.7832 158.084 31.298C157.817 34.8127 154.751 37.4456 151.236 37.1786ZM165.556 26.0691C168.048 23.5767 172.09 23.5767 174.582 26.0691L188.418 39.9054L202.255 26.0691C204.747 23.5767 208.788 23.5767 211.281 26.0691C213.773 28.5616 213.773 32.6027 211.281 35.0952L197.444 48.9314L211.281 62.7677C213.773 65.2601 213.773 69.3012 211.281 71.7937C208.788 74.2861 204.747 74.2861 202.255 71.7937L188.418 57.9574L174.582 71.7937C172.09 74.2861 168.048 74.2861 165.556 71.7937C163.064 69.3012 163.064 65.2601 165.556 62.7677L179.392 48.9314L165.556 35.0952C163.064 32.6027 163.064 28.5616 165.556 26.0691ZM156.522 65.5688C141.045 62.3126 124.23 66.3891 109.932 78.3008C107.224 80.5569 103.199 80.1905 100.943 77.4822C98.6868 74.774 99.0532 70.7496 101.761 68.4934C118.828 54.2757 139.568 48.9575 159.15 53.0776C162.6 53.8033 164.808 57.1879 164.082 60.6373C163.356 64.0866 159.971 66.2946 156.522 65.5688ZM179.054 68.0817C181.318 65.3795 185.343 65.0238 188.045 67.2872C188.567 67.7242 189.083 68.1685 189.592 68.6198C192.231 70.9572 192.475 74.9909 190.137 77.6293C187.8 80.2678 183.766 80.5118 181.128 78.1744C180.707 77.8013 180.28 77.434 179.849 77.0727C177.147 74.8093 176.791 70.7839 179.054 68.0817ZM164.027 96.2594C154.287 86.519 136.92 86.519 127.18 96.2594C124.687 98.7518 120.646 98.7518 118.154 96.2594C115.661 93.7669 115.661 89.7258 118.154 87.2334C132.879 72.5081 158.328 72.5081 173.053 87.2334C175.545 89.7258 175.545 93.7669 173.053 96.2594C170.56 98.7518 166.519 98.7518 164.027 96.2594ZM139.221 110.096C139.221 106.571 142.078 103.713 145.603 103.713H145.677C149.202 103.713 152.059 106.571 152.059 110.096C152.059 113.621 149.202 116.478 145.677 116.478H145.603C142.078 116.478 139.221 113.621 139.221 110.096Z" fill="#AAC8D1"/>
<path fill-rule="evenodd" clip-rule="evenodd" d="M165.556 26.0691C168.048 23.5766 172.089 23.5766 174.582 26.0691L188.418 39.9053L202.254 26.0691C204.747 23.5766 208.788 23.5766 211.28 26.0691C213.773 28.5615 213.773 32.6026 211.28 35.0951L197.444 48.9313L211.28 62.7676C213.773 65.26 213.773 69.3011 211.28 71.7936C208.788 74.2861 204.747 74.2861 202.254 71.7936L188.418 57.9573L174.582 71.7936C172.089 74.2861 168.048 74.2861 165.556 71.7936C163.063 69.3011 163.063 65.26 165.556 62.7676L179.392 48.9313L165.556 35.0951C163.063 32.6026 163.063 28.5615 165.556 26.0691Z" fill="#E98872"/>
<defs>
<clipPath id="clip0_2962_11309">
<rect width="158.282" height="158.282" fill="white" transform="translate(0 116.159)"/>
</clipPath>
</defs>
</svg>
