<svg width="62" height="61" viewBox="0 0 62 61" fill="none" xmlns="http://www.w3.org/2000/svg">
<g clip-path="url(#clip0_3732_4190)">
<path d="M31 0C14.1818 0 0.5 13.6818 0.5 30.5C0.5 47.3182 14.1818 61 31 61C47.8182 61 61.5 47.3182 61.5 30.5H54.6375C54.6375 43.5337 44.0337 54.1375 31 54.1375C17.9663 54.1375 7.3625 43.5337 7.3625 30.5C7.3625 17.4663 17.9663 6.8625 31 6.8625V0ZM49.8083 6.56512L30.7331 30.3831L21.8195 23.0783L16.7311 29.2698L28.7811 39.1518C29.1905 39.4895 29.663 39.7423 30.1711 39.8955C30.6792 40.0487 31.2127 40.0992 31.7405 40.0441C32.2683 39.9889 32.7798 39.8293 33.2453 39.5744C33.7107 39.3196 34.1208 38.9746 34.4516 38.5596L56.0659 11.5747L49.8083 6.56512Z" fill="#156A85"/>
</g>
<defs>
<clipPath id="clip0_3732_4190">
<rect width="61" height="61" fill="white" transform="translate(0.5)"/>
</clipPath>
</defs>
</svg>
