<svg width="61" height="62" viewBox="0 0 61 62" fill="none" xmlns="http://www.w3.org/2000/svg">
<g clip-path="url(#clip0_1796_17187)">
<path d="M30.5 0.900146C13.6818 0.900146 0 14.5819 0 31.4001C0 48.2184 13.6818 61.9001 30.5 61.9001C47.3182 61.9001 61 48.2184 61 31.4001H54.1375C54.1375 44.4338 43.5337 55.0376 30.5 55.0376C17.4663 55.0376 6.8625 44.4338 6.8625 31.4001C6.8625 18.3665 17.4663 7.76265 30.5 7.76265V0.900146ZM49.3083 7.46527L30.2331 31.2832L21.3195 23.9785L16.2311 30.17L28.2811 40.052C28.6905 40.3897 29.163 40.6425 29.6711 40.7957C30.1792 40.9488 30.7127 40.9993 31.2405 40.9442C31.7683 40.8891 32.2798 40.7295 32.7453 40.4746C33.2107 40.2197 33.6208 39.8747 33.9516 39.4598L55.5659 12.4749L49.3083 7.46527Z" fill="#E98872"/>
</g>
<defs>
<clipPath id="clip0_1796_17187">
<rect width="61" height="61" fill="white" transform="translate(0 0.900146)"/>
</clipPath>
</defs>
</svg>
