<svg width="30" height="30" viewBox="0 0 30 30" fill="none" xmlns="http://www.w3.org/2000/svg">
<path d="M13.875 21H16.125V16.125H21V13.875H16.125V9H13.875V13.875H9V16.125H13.875V21ZM15 27C13.354 27 11.802 26.6875 10.344 26.0625C8.886 25.4375 7.61 24.578 6.516 23.484C5.422 22.39 4.5625 21.114 3.9375 19.656C3.3125 18.198 3 16.646 3 15C3 13.333 3.3125 11.7755 3.9375 10.3275C4.5625 8.8805 5.422 7.61 6.516 6.516C7.61 5.422 8.886 4.5625 10.344 3.9375C11.802 3.3125 13.354 3 15 3C16.667 3 18.2245 3.3125 19.6725 3.9375C21.1195 4.5625 22.39 5.422 23.484 6.516C24.578 7.61 25.4375 8.8805 26.0625 10.3275C26.6875 11.7755 27 13.333 27 15C27 16.646 26.6875 18.198 26.0625 19.656C25.4375 21.114 24.578 22.39 23.484 23.484C22.39 24.578 21.1195 25.4375 19.6725 26.0625C18.2245 26.6875 16.667 27 15 27ZM15 24.75C17.708 24.75 20.01 23.802 21.906 21.906C23.802 20.01 24.75 17.708 24.75 15C24.75 12.292 23.802 9.99 21.906 8.094C20.01 6.198 17.708 5.25 15 5.25C12.292 5.25 9.99 6.198 8.094 8.094C6.198 9.99 5.25 12.292 5.25 15C5.25 17.708 6.198 20.01 8.094 21.906C9.99 23.802 12.292 24.75 15 24.75Z" fill="#FAFAFA"/>
</svg>
