<svg width="28" height="28" viewBox="0 0 28 28" fill="none" xmlns="http://www.w3.org/2000/svg">
<path d="M14 2.625C16.5527 2.625 19.0009 3.65223 20.8059 5.48071C22.6109 7.30919 23.625 9.78914 23.625 12.375C23.625 16.4115 20.5878 20.6408 14.6417 25.1583C14.4565 25.299 14.2314 25.375 14 25.375C13.7686 25.375 13.5434 25.299 13.3583 25.1583C7.41222 20.6408 4.375 16.4115 4.375 12.375C4.375 9.78914 5.38906 7.30919 7.1941 5.48071C8.99913 3.65223 11.4473 2.625 14 2.625ZM14 4.79167C12.0146 4.79167 10.1104 5.59062 8.70652 7.01277C7.3026 8.43492 6.51389 10.3638 6.51389 12.375C6.51389 15.3108 8.77897 18.6973 13.4097 22.4565L14 22.9288L14.5903 22.4565C19.221 18.6973 21.4861 15.3108 21.4861 12.375C21.4861 10.3638 20.6974 8.43492 19.2935 7.01277C17.8896 5.59062 15.9854 4.79167 14 4.79167ZM14 10.2083C14.5673 10.2083 15.1113 10.4366 15.5124 10.8429C15.9135 11.2493 16.1389 11.8004 16.1389 12.375C16.1389 12.9496 15.9135 13.5007 15.5124 13.9071C15.1113 14.3134 14.5673 14.5417 14 14.5417C13.4327 14.5417 12.8887 14.3134 12.4876 13.9071C12.0865 13.5007 11.8611 12.9496 11.8611 12.375C11.8611 11.8004 12.0865 11.2493 12.4876 10.8429C12.8887 10.4366 13.4327 10.2083 14 10.2083Z" fill="#156A85"/>
</svg>
