<svg width="162" height="60" viewBox="0 0 162 60" fill="none" xmlns="http://www.w3.org/2000/svg">
<path d="M0 30C0 13.4315 13.4315 0 30 0H132C148.569 0 162 13.4315 162 30C162 46.5685 148.569 60 132 60H30C13.4315 60 0 46.5685 0 30Z" fill="#156A85"/>
<path d="M41.4346 39.288C40.1226 39.288 38.9146 38.984 37.8106 38.376C36.7066 37.768 35.8186 36.872 35.1466 35.688C34.4906 34.488 34.1626 33.016 34.1626 31.272C34.1626 29.544 34.4986 28.072 35.1706 26.856C35.8586 25.624 36.7626 24.688 37.8826 24.048C39.0186 23.392 40.2426 23.064 41.5546 23.064C42.5626 23.064 43.4666 23.272 44.2666 23.688C45.0666 24.088 45.7306 24.56 46.2586 25.104L44.3866 27.36C43.9866 26.992 43.5626 26.696 43.1146 26.472C42.6826 26.232 42.1866 26.112 41.6266 26.112C40.9226 26.112 40.2746 26.312 39.6826 26.712C39.1066 27.112 38.6426 27.688 38.2906 28.44C37.9546 29.192 37.7866 30.096 37.7866 31.152C37.7866 32.752 38.1306 34 38.8186 34.896C39.5066 35.792 40.4266 36.24 41.5786 36.24C42.2186 36.24 42.7866 36.096 43.2826 35.808C43.7946 35.52 44.2426 35.176 44.6266 34.776L46.4986 36.984C45.1866 38.52 43.4986 39.288 41.4346 39.288ZM49.1873 39V27.096H52.0673L52.3073 29.184H52.4033C52.8353 28.384 53.3553 27.792 53.9633 27.408C54.5713 27.008 55.1793 26.808 55.7873 26.808C56.1233 26.808 56.4033 26.832 56.6273 26.88C56.8513 26.912 57.0433 26.968 57.2033 27.048L56.6273 30.096C56.4193 30.032 56.2113 29.984 56.0033 29.952C55.8113 29.92 55.5873 29.904 55.3313 29.904C54.8833 29.904 54.4113 30.072 53.9153 30.408C53.4353 30.728 53.0353 31.288 52.7153 32.088V39H49.1873ZM64.4435 39.288C63.3075 39.288 62.2835 39.04 61.3715 38.544C60.4595 38.048 59.7395 37.336 59.2115 36.408C58.6835 35.48 58.4195 34.36 58.4195 33.048C58.4195 31.752 58.6835 30.64 59.2115 29.712C59.7555 28.784 60.4595 28.072 61.3235 27.576C62.1875 27.064 63.0915 26.808 64.0355 26.808C65.1715 26.808 66.1075 27.064 66.8435 27.576C67.5955 28.072 68.1555 28.752 68.5235 29.616C68.9075 30.464 69.0995 31.432 69.0995 32.52C69.0995 32.824 69.0835 33.128 69.0515 33.432C69.0195 33.72 68.9875 33.936 68.9555 34.08H61.8275C61.9875 34.944 62.3475 35.584 62.9075 36C63.4675 36.4 64.1395 36.6 64.9235 36.6C65.7715 36.6 66.6275 36.336 67.4915 35.808L68.6675 37.944C68.0595 38.36 67.3795 38.688 66.6275 38.928C65.8755 39.168 65.1475 39.288 64.4435 39.288ZM61.8035 31.752H66.0995C66.0995 31.096 65.9395 30.56 65.6195 30.144C65.3155 29.712 64.8115 29.496 64.1075 29.496C63.5635 29.496 63.0755 29.688 62.6435 30.072C62.2115 30.44 61.9315 31 61.8035 31.752ZM74.8795 39.288C73.7915 39.288 72.9275 38.944 72.2875 38.256C71.6475 37.552 71.3275 36.696 71.3275 35.688C71.3275 34.44 71.8555 33.464 72.9115 32.76C73.9675 32.056 75.6715 31.584 78.0235 31.344C77.9915 30.816 77.8315 30.4 77.5435 30.096C77.2715 29.776 76.8075 29.616 76.1515 29.616C75.6555 29.616 75.1515 29.712 74.6395 29.904C74.1275 30.096 73.5835 30.36 73.0075 30.696L71.7355 28.368C72.4875 27.904 73.2875 27.528 74.1355 27.24C74.9995 26.952 75.8955 26.808 76.8235 26.808C78.3435 26.808 79.5115 27.248 80.3275 28.128C81.1435 29.008 81.5515 30.36 81.5515 32.184V39H78.6715L78.4315 37.776H78.3355C77.8395 38.224 77.3035 38.592 76.7275 38.88C76.1675 39.152 75.5515 39.288 74.8795 39.288ZM76.0795 36.552C76.4795 36.552 76.8235 36.464 77.1115 36.288C77.4155 36.096 77.7195 35.848 78.0235 35.544V33.456C76.7755 33.616 75.9115 33.872 75.4315 34.224C74.9515 34.56 74.7115 34.96 74.7115 35.424C74.7115 35.808 74.8315 36.096 75.0715 36.288C75.3275 36.464 75.6635 36.552 76.0795 36.552ZM89.2979 39.288C87.8259 39.288 86.7699 38.864 86.1299 38.016C85.5059 37.168 85.1939 36.056 85.1939 34.68V29.856H83.5619V27.24L85.3859 27.096L85.7939 23.928H88.7219V27.096H91.5779V29.856H88.7219V34.632C88.7219 35.304 88.8579 35.792 89.1299 36.096C89.4179 36.384 89.7939 36.528 90.2579 36.528C90.4499 36.528 90.6419 36.504 90.8339 36.456C91.0419 36.408 91.2259 36.352 91.3859 36.288L91.9379 38.856C91.6339 38.952 91.2579 39.048 90.8099 39.144C90.3779 39.24 89.8739 39.288 89.2979 39.288ZM99.4075 39.288C98.2715 39.288 97.2475 39.04 96.3355 38.544C95.4235 38.048 94.7035 37.336 94.1755 36.408C93.6475 35.48 93.3835 34.36 93.3835 33.048C93.3835 31.752 93.6475 30.64 94.1755 29.712C94.7195 28.784 95.4235 28.072 96.2875 27.576C97.1515 27.064 98.0555 26.808 98.9995 26.808C100.136 26.808 101.072 27.064 101.808 27.576C102.56 28.072 103.12 28.752 103.488 29.616C103.872 30.464 104.064 31.432 104.064 32.52C104.064 32.824 104.048 33.128 104.016 33.432C103.984 33.72 103.952 33.936 103.92 34.08H96.7915C96.9515 34.944 97.3115 35.584 97.8715 36C98.4315 36.4 99.1035 36.6 99.8875 36.6C100.736 36.6 101.592 36.336 102.456 35.808L103.632 37.944C103.024 38.36 102.344 38.688 101.592 38.928C100.84 39.168 100.112 39.288 99.4075 39.288ZM96.7675 31.752H101.064C101.064 31.096 100.904 30.56 100.584 30.144C100.28 29.712 99.7755 29.496 99.0715 29.496C98.5275 29.496 98.0395 29.688 97.6075 30.072C97.1755 30.44 96.8955 31 96.7675 31.752Z" fill="white"/>
<path d="M119.376 36L118.102 34.7256L122.826 30L118.102 25.2744L119.376 24L125.376 30L119.376 36Z" fill="white"/>
</svg>
