<svg width="32" height="32" viewBox="0 0 32 32" fill="none" xmlns="http://www.w3.org/2000/svg">
<path d="M15.5712 4.57031C21.8832 4.57031 26.9997 9.68626 26.9997 15.9975C26.9997 22.3087 21.8832 27.4247 15.5712 27.4247C13.7223 27.4271 11.9006 26.9792 10.2637 26.1197L5.36087 27.3961C5.19705 27.4388 5.02492 27.4379 4.86155 27.3935C4.69817 27.3492 4.54922 27.2629 4.42946 27.1433C4.3097 27.0237 4.22328 26.8748 4.17878 26.7115C4.13427 26.5482 4.13322 26.3761 4.17573 26.2122L5.45116 21.3111C4.58926 19.6727 4.14009 17.8488 4.14259 15.9975C4.14259 9.68626 9.25916 4.57031 15.5712 4.57031ZM17.002 17.1402H11.8569L11.7403 17.1482C11.5351 17.1764 11.3471 17.278 11.2111 17.434C11.075 17.5901 11 17.7902 11 17.9972C11 18.2043 11.075 18.4044 11.2111 18.5604C11.3471 18.7165 11.5351 18.8181 11.7403 18.8463L11.8569 18.8543H17.002L17.1174 18.8463C17.3226 18.8181 17.5106 18.7165 17.6467 18.5604C17.7828 18.4044 17.8577 18.2043 17.8577 17.9972C17.8577 17.7902 17.7828 17.5901 17.6467 17.434C17.5106 17.278 17.3226 17.1764 17.1174 17.1482L17.002 17.1402ZM19.2854 13.1407H11.8569L11.7403 13.1487C11.5351 13.1769 11.3471 13.2785 11.2111 13.4345C11.075 13.5906 11 13.7907 11 13.9977C11 14.2048 11.075 14.4049 11.2111 14.5609C11.3471 14.717 11.5351 14.8185 11.7403 14.8468L11.8569 14.8548H19.2854L19.402 14.8468C19.6072 14.8185 19.7952 14.717 19.9313 14.5609C20.0673 14.4049 20.1423 14.2048 20.1423 13.9977C20.1423 13.7907 20.0673 13.5906 19.9313 13.4345C19.7952 13.2785 19.6072 13.1769 19.402 13.1487L19.2854 13.1407Z" fill="#156A85"/>
</svg>
