<svg width="55" height="62" viewBox="0 0 55 62" fill="none" xmlns="http://www.w3.org/2000/svg">
<path d="M27.5 44.42L22.6795 49.3C22.1272 49.8592 21.4242 50.1387 20.5706 50.1387C19.7169 50.1387 19.0139 49.8592 18.4616 49.3C17.9092 48.7408 17.6331 48.0292 17.6331 47.165C17.6331 46.3008 17.9092 45.5892 18.4616 45.03L23.2821 40.15L18.4616 35.27C17.9092 34.7108 17.6331 33.9992 17.6331 33.135C17.6331 32.2708 17.9092 31.5592 18.4616 31C19.0139 30.4408 19.7169 30.1613 20.5706 30.1613C21.4242 30.1613 22.1272 30.4408 22.6795 31L27.5 35.88L32.3205 31C32.8728 30.4408 33.5758 30.1613 34.4295 30.1613C35.2831 30.1613 35.9861 30.4408 36.5384 31C37.0908 31.5592 37.3669 32.2708 37.3669 33.135C37.3669 33.9992 37.0908 34.7108 36.5384 35.27L31.7179 40.15L36.5384 45.03C37.0908 45.5892 37.3669 46.3008 37.3669 47.165C37.3669 48.0292 37.0908 48.7408 36.5384 49.3C35.9861 49.8592 35.2831 50.1387 34.4295 50.1387C33.5758 50.1387 32.8728 49.8592 32.3205 49.3L27.5 44.42ZM6.41037 61.5C4.75333 61.5 3.33531 60.9032 2.15629 59.7096C0.977284 58.5161 0.386774 57.0795 0.384766 55.4V12.7C0.384766 11.0225 0.975275 9.58697 2.15629 8.39341C3.33731 7.19984 4.75534 6.60204 6.41037 6.60001H9.42318V3.55001C9.42318 2.68584 9.71241 1.96198 10.2909 1.37841C10.8693 0.794844 11.5844 0.502044 12.436 0.500011C13.2876 0.497977 14.0036 0.790777 14.5841 1.37841C15.1646 1.96604 15.4528 2.68991 15.4488 3.55001V6.60001H39.5512V3.55001C39.5512 2.68584 39.8404 1.96198 40.4189 1.37841C40.9974 0.794844 41.7124 0.502044 42.564 0.500011C43.4156 0.497977 44.1317 0.790777 44.7122 1.37841C45.2926 1.96604 45.5808 2.68991 45.5768 3.55001V6.60001H48.5896C50.2467 6.60001 51.6657 7.19781 52.8467 8.39341C54.0277 9.58901 54.6172 11.0245 54.6152 12.7V55.4C54.6152 57.0775 54.0257 58.514 52.8467 59.7096C51.6677 60.9052 50.2487 61.502 48.5896 61.5H6.41037ZM6.41037 55.4H48.5896V24.9H6.41037V55.4Z" fill="#E43F3F"/>
</svg>
