<svg width="32" height="32" viewBox="0 0 32 32" fill="none" xmlns="http://www.w3.org/2000/svg">
<path d="M21.8333 18.3333C22.1428 18.3333 22.4395 18.2104 22.6583 17.9916C22.8771 17.7728 23 17.4761 23 17.1667C23 16.8572 22.8771 16.5605 22.6583 16.3417C22.4395 16.1229 22.1428 16 21.8333 16C21.5239 16 21.2272 16.1229 21.0084 16.3417C20.7896 16.5605 20.6667 16.8572 20.6667 17.1667C20.6667 17.4761 20.7896 17.7728 21.0084 17.9916C21.2272 18.2104 21.5239 18.3333 21.8333 18.3333ZM21.8333 23C22.1428 23 22.4395 22.8771 22.6583 22.6583C22.8771 22.4395 23 22.1428 23 21.8333C23 21.5239 22.8771 21.2272 22.6583 21.0084C22.4395 20.7896 22.1428 20.6667 21.8333 20.6667C21.5239 20.6667 21.2272 20.7896 21.0084 21.0084C20.7896 21.2272 20.6667 21.5239 20.6667 21.8333C20.6667 22.1428 20.7896 22.4395 21.0084 22.6583C21.2272 22.8771 21.5239 23 21.8333 23ZM17.1667 17.1667C17.1667 17.4761 17.0437 17.7728 16.825 17.9916C16.6062 18.2104 16.3094 18.3333 16 18.3333C15.6906 18.3333 15.3938 18.2104 15.175 17.9916C14.9562 17.7728 14.8333 17.4761 14.8333 17.1667C14.8333 16.8572 14.9562 16.5605 15.175 16.3417C15.3938 16.1229 15.6906 16 16 16C16.3094 16 16.6062 16.1229 16.825 16.3417C17.0437 16.5605 17.1667 16.8572 17.1667 17.1667ZM17.1667 21.8333C17.1667 22.1428 17.0437 22.4395 16.825 22.6583C16.6062 22.8771 16.3094 23 16 23C15.6906 23 15.3938 22.8771 15.175 22.6583C14.9562 22.4395 14.8333 22.1428 14.8333 21.8333C14.8333 21.5239 14.9562 21.2272 15.175 21.0084C15.3938 20.7896 15.6906 20.6667 16 20.6667C16.3094 20.6667 16.6062 20.7896 16.825 21.0084C17.0437 21.2272 17.1667 21.5239 17.1667 21.8333ZM10.1667 18.3333C10.4761 18.3333 10.7728 18.2104 10.9916 17.9916C11.2104 17.7728 11.3333 17.4761 11.3333 17.1667C11.3333 16.8572 11.2104 16.5605 10.9916 16.3417C10.7728 16.1229 10.4761 16 10.1667 16C9.85725 16 9.5605 16.1229 9.34171 16.3417C9.12292 16.5605 9 16.8572 9 17.1667C9 17.4761 9.12292 17.7728 9.34171 17.9916C9.5605 18.2104 9.85725 18.3333 10.1667 18.3333ZM10.1667 23C10.4761 23 10.7728 22.8771 10.9916 22.6583C11.2104 22.4395 11.3333 22.1428 11.3333 21.8333C11.3333 21.5239 11.2104 21.2272 10.9916 21.0084C10.7728 20.7896 10.4761 20.6667 10.1667 20.6667C9.85725 20.6667 9.5605 20.7896 9.34171 21.0084C9.12292 21.2272 9 21.5239 9 21.8333C9 22.1428 9.12292 22.4395 9.34171 22.6583C9.5605 22.8771 9.85725 23 10.1667 23Z" fill="#156A85" stroke="#156A85" stroke-width="0.25"/>
<path fill-rule="evenodd" clip-rule="evenodd" d="M10.4178 5C10.6398 5 10.8528 5.08654 11.0098 5.24059C11.1668 5.39464 11.255 5.60357 11.255 5.82143V6.6571C11.994 6.64286 12.8079 6.64286 13.7031 6.64286H18.2946C19.191 6.64286 20.0048 6.64286 20.7438 6.6571V5.82143C20.7438 5.60357 20.8321 5.39464 20.9891 5.24059C21.1461 5.08654 21.359 5 21.5811 5C21.8031 5 22.0161 5.08654 22.1731 5.24059C22.3301 5.39464 22.4183 5.60357 22.4183 5.82143V6.72719C22.7086 6.7491 22.9832 6.77648 23.2433 6.81043C24.5517 6.98348 25.6111 7.3471 26.4472 8.16633C27.2822 8.98667 27.6528 10.026 27.8292 11.3097C28 12.5582 28 14.1518 28 16.1649V18.478C28 20.491 28 22.0857 27.8292 23.3332C27.6528 24.6168 27.2822 25.6562 26.4472 26.4765C25.6111 27.2958 24.5517 27.6594 23.2433 27.8324C21.9707 28 20.3464 28 18.2946 28H13.7054C11.6536 28 10.0282 28 8.75669 27.8324C7.44835 27.6594 6.38895 27.2958 5.55282 26.4765C4.7178 25.6562 4.34718 24.6168 4.1708 23.3332C4 22.0846 4 20.491 4 18.478V16.1649C4 14.1518 4 12.5571 4.1708 11.3097C4.34718 10.026 4.7178 8.98667 5.55282 8.16633C6.38895 7.3471 7.44835 6.98348 8.75669 6.81043C9.01679 6.77648 9.29253 6.7491 9.58166 6.72719V5.82143C9.58165 5.60376 9.66971 5.39499 9.82648 5.24098C9.98326 5.08696 10.1959 5.00029 10.4178 5ZM8.97772 8.43905C7.85581 8.5869 7.20833 8.8651 6.73613 9.32838C6.26392 9.79167 5.98037 10.4269 5.82967 11.5287C5.80399 11.7149 5.78278 11.912 5.76492 12.119H26.234C26.2161 11.911 26.1949 11.7149 26.1692 11.5276C26.0185 10.4269 25.735 9.79167 25.2628 9.32838C24.7905 8.8651 24.1431 8.5869 23.02 8.43905C21.8736 8.2879 20.3609 8.28571 18.2321 8.28571H13.7668C11.6379 8.28571 10.1264 8.2879 8.97772 8.43905ZM5.67338 16.2262C5.67338 15.2909 5.67338 14.4771 5.68789 13.7619H26.311C26.3255 14.4771 26.3255 15.2909 26.3255 16.2262V18.4167C26.3255 20.5053 26.3233 21.9893 26.1692 23.1152C26.0185 24.216 25.735 24.8512 25.2628 25.3145C24.7905 25.7778 24.1431 26.056 23.02 26.2038C21.8736 26.355 20.3609 26.3571 18.2321 26.3571H13.7668C11.6379 26.3571 10.1264 26.355 8.97772 26.2038C7.85581 26.056 7.20833 25.7778 6.73613 25.3145C6.26392 24.8512 5.98037 24.216 5.82967 23.1141C5.67561 21.9893 5.67338 20.5053 5.67338 18.4167V16.2262Z" fill="#156A85" stroke="#156A85" stroke-width="0.5"/>
</svg>
