<svg width="126" height="53" viewBox="0 0 126 53" fill="none" xmlns="http://www.w3.org/2000/svg">
<g clip-path="url(#clip0_1835_26207)">
<circle cx="26.5" cy="26.5" r="24" stroke="#44889D" stroke-width="5"/>
<circle cx="26.5" cy="26.5" r="26.5" fill="#156A85"/>
<path d="M39.4938 28.2082C40.0907 29.0164 40.4211 30.0065 40.4211 31.0368C40.4211 32.6713 39.5293 34.2184 38.0941 35.0812C37.7246 35.3032 37.3039 35.4201 36.8755 35.4197H28.3563L28.5695 39.8937C28.6192 40.9749 28.2462 42.0014 27.5214 42.7841C27.1658 43.1699 26.7367 43.4768 26.2607 43.6859C25.7847 43.8951 25.2719 44.0019 24.7539 44C22.9066 44 21.2724 42.7259 20.7821 40.9021L17.7304 29.5806H13.1368C12.508 29.5806 12 29.0601 12 28.4157V15.1649C12 14.5206 12.508 14 13.1368 14H34.4988C34.8257 14 35.1454 14.0655 35.4403 14.1966C37.1313 14.9356 38.222 16.6283 38.222 18.5067C38.222 18.9654 38.158 19.4168 38.0301 19.8537C38.627 20.6618 38.9574 21.652 38.9574 22.6822C38.9574 23.1409 38.8934 23.5923 38.7655 24.0291C39.3624 24.8373 39.6928 25.8274 39.6928 26.8577C39.6857 27.3163 39.6217 27.7714 39.4938 28.2082ZM14.5579 16.621V26.9596H17.4355V16.621H14.5579ZM37.1668 29.4714L36.3888 28.7797L36.8826 27.8551C37.0453 27.5505 37.1297 27.2085 37.1278 26.8613C37.1278 26.2606 36.872 25.6891 36.4314 25.2959L35.6534 24.6043L36.1472 23.6796C36.3099 23.3751 36.3943 23.033 36.3924 22.6858C36.3924 22.0852 36.1366 21.5136 35.6961 21.1205L34.918 20.4288L35.4118 19.5042C35.5745 19.1996 35.6589 18.8576 35.657 18.5104C35.657 17.6949 35.188 16.9596 34.4633 16.6247H19.7092V27.0761L23.2441 40.1995C23.3352 40.5358 23.5309 40.8326 23.8014 41.0448C24.072 41.2569 24.4026 41.373 24.7433 41.3753C25.0133 41.3753 25.2797 41.2952 25.4929 41.1314C25.8446 40.862 26.0329 40.4543 26.0116 40.0211L25.6705 32.7987H36.84C37.4724 32.4019 37.8632 31.7321 37.8632 31.0368C37.8632 30.4361 37.6074 29.8682 37.1668 29.4714Z" fill="white"/>
</g>
<path d="M113.494 25.7918C114.091 24.9836 114.421 23.9935 114.421 22.9632C114.421 21.3287 113.529 19.7816 112.094 18.9188C111.725 18.6968 111.304 18.5799 110.876 18.5803H102.356L102.569 14.1063C102.619 13.0251 102.246 11.9986 101.521 11.2159C101.166 10.8301 100.737 10.5232 100.261 10.3141C99.7847 10.1049 99.2719 9.99805 98.7539 10C96.9066 10 95.2724 11.2741 94.7821 13.0979L91.7304 24.4194H87.1368C86.508 24.4194 86 24.9399 86 25.5843V38.8351C86 39.4794 86.508 40 87.1368 40H108.499C108.826 40 109.145 39.9345 109.44 39.8034C111.131 39.0644 112.222 37.3717 112.222 35.4933C112.222 35.0346 112.158 34.5832 112.03 34.1463C112.627 33.3382 112.957 32.348 112.957 31.3178C112.957 30.8591 112.893 30.4077 112.766 29.9709C113.362 29.1627 113.693 28.1726 113.693 27.1423C113.686 26.6837 113.622 26.2286 113.494 25.7918ZM88.5579 37.379V27.0404H91.4355V37.379H88.5579ZM111.167 24.5286L110.389 25.2203L110.883 26.1449C111.045 26.4495 111.13 26.7915 111.128 27.1387C111.128 27.7394 110.872 28.3109 110.431 28.7041L109.653 29.3957L110.147 30.3204C110.31 30.6249 110.394 30.967 110.392 31.3142C110.392 31.9148 110.137 32.4864 109.696 32.8795L108.918 33.5712L109.412 34.4958C109.575 34.8004 109.659 35.1424 109.657 35.4896C109.657 36.3051 109.188 37.0404 108.463 37.3753H93.7092V26.9239L97.2441 13.8005C97.3352 13.4642 97.5309 13.1674 97.8014 12.9552C98.072 12.7431 98.4026 12.627 98.7433 12.6247C99.0133 12.6247 99.2797 12.7048 99.4929 12.8686C99.8446 13.138 100.033 13.5457 100.012 13.9789L99.6705 21.2013H110.84C111.472 21.5981 111.863 22.2679 111.863 22.9632C111.863 23.5639 111.607 24.1318 111.167 24.5286Z" fill="#44889D"/>
<circle cx="99.5" cy="26.5" r="24" stroke="#44889D" stroke-width="5"/>
<defs>
<clipPath id="clip0_1835_26207">
<rect width="53" height="53" fill="white" transform="matrix(1 0 0 -1 0 53)"/>
</clipPath>
</defs>
</svg>

