<svg width="32" height="32" viewBox="0 0 32 32" fill="none" xmlns="http://www.w3.org/2000/svg">
<path d="M25.75 6H6.25C5.38833 6.0009 4.56221 6.33642 3.95292 6.93293C3.34363 7.52944 3.00092 8.33822 3 9.18182V22.8182C3.00092 23.6618 3.34363 24.4706 3.95292 25.0671C4.56221 25.6636 5.38833 25.9991 6.25 26H25.75C26.6117 25.9991 27.4378 25.6636 28.0471 25.0671C28.6564 24.4706 28.9991 23.6618 29 22.8182V9.18182C28.9991 8.33822 28.6564 7.52944 28.0471 6.93293C27.4378 6.33642 26.6117 6.0009 25.75 6ZM24.9271 11.2631L16.5699 17.6267C16.4069 17.7507 16.2064 17.8181 16 17.8181C15.7936 17.8181 15.5931 17.7507 15.4301 17.6267L7.07295 11.2631C6.97476 11.1905 6.89228 11.0995 6.83032 10.9954C6.76835 10.8914 6.72813 10.7763 6.71199 10.6569C6.69585 10.5374 6.70412 10.4161 6.7363 10.2998C6.76849 10.1835 6.82395 10.0747 6.89948 9.97959C6.975 9.88449 7.06908 9.80504 7.17624 9.74585C7.2834 9.68665 7.40151 9.6489 7.5237 9.63478C7.64589 9.62066 7.76973 9.63045 7.88803 9.6636C8.00632 9.69674 8.1167 9.75257 8.21277 9.82784L16 15.7574L23.7872 9.82784C23.982 9.68388 24.2267 9.62073 24.4686 9.65207C24.7105 9.68341 24.9301 9.8067 25.0799 9.9953C25.2297 10.1839 25.2976 10.4226 25.269 10.6599C25.2404 10.8971 25.1176 11.1138 24.9271 11.2631Z" fill="#156A85"/>
</svg>
