<svg width="32" height="32" viewBox="0 0 32 32" fill="none" xmlns="http://www.w3.org/2000/svg">
<path d="M29.0214 18.8831C28.7196 18.6135 28.3682 18.4285 27.9946 18.3425C27.621 18.2565 27.2353 18.2718 26.8676 18.3873L26.3917 18.5151C28.7878 15.9314 29.9997 13.3708 29.9997 10.8779C29.9997 7.63743 27.7534 5.00011 24.9914 5.00011C24.2125 4.99445 23.4432 5.19936 22.7444 5.59859C22.0457 5.99782 21.4367 6.5804 20.9659 7.3001C20.4951 6.5804 19.8861 5.99782 19.1874 5.59859C18.4886 5.19936 17.7193 4.99445 16.9404 5.00011C14.1784 5.00011 11.9321 7.63743 11.9321 10.8779C11.9321 12.332 12.332 13.7516 13.1759 15.2683C12.4842 15.392 11.8448 15.7695 11.3515 16.3454L8.79452 19.3112H5.54235C5.1333 19.3112 4.74099 19.4996 4.45175 19.8351C4.1625 20.1706 4 20.6256 4 21.1V26.2111C4 26.6856 4.1625 27.1406 4.45175 27.476C4.74099 27.8115 5.1333 28 5.54235 28H16.9998C17.0541 28 17.1081 27.9923 17.1607 27.977L24.2115 25.9326C24.2448 25.9223 24.2776 25.9095 24.3095 25.8942L28.5862 23.7834L28.6226 23.7642C29.0007 23.5452 29.3246 23.2181 29.5636 22.8138C29.8026 22.4095 29.949 21.9413 29.9889 21.4532C30.0288 20.9652 29.9609 20.4734 29.7916 20.0242C29.6224 19.575 29.3573 19.1832 29.0214 18.8857V18.8831ZM16.9404 6.53344C17.6673 6.52219 18.3806 6.76277 18.989 7.2244C19.5974 7.68603 20.0732 8.34771 20.3556 9.12476C20.4054 9.26537 20.4901 9.38564 20.599 9.47028C20.7078 9.55493 20.8359 9.60012 20.967 9.60012C21.0981 9.60012 21.2262 9.55493 21.335 9.47028C21.4439 9.38564 21.5286 9.26537 21.5784 9.12476C21.8608 8.34771 22.3366 7.68603 22.945 7.2244C23.5534 6.76277 24.2667 6.52219 24.9936 6.53344C26.9899 6.53344 28.6777 8.52293 28.6777 10.8779C28.6777 13.4641 26.8952 16.3723 23.5218 19.2792L21.8836 19.7162C22.047 19.2134 22.1028 18.6722 22.0462 18.139C21.9897 17.6057 21.8225 17.0963 21.5589 16.6544C21.2954 16.2126 20.9434 15.8514 20.5331 15.602C20.1228 15.3526 19.6665 15.2223 19.2032 15.2223H14.7601C13.7345 13.6468 13.2541 12.2591 13.2541 10.8779C13.2541 8.52293 14.9419 6.53344 16.9404 6.53344ZM5.32202 26.2111V21.1C5.32202 21.0323 5.34523 20.9673 5.38655 20.9193C5.42787 20.8714 5.48392 20.8445 5.54235 20.8445H8.40673V26.4667H5.54235C5.48392 26.4667 5.42787 26.4398 5.38655 26.3918C5.34523 26.3439 5.32202 26.2789 5.32202 26.2111ZM28.0475 22.3778L23.8391 24.4567L16.9183 26.4667H9.72875V20.396L12.2857 17.429C12.4695 17.2148 12.6881 17.0449 12.9288 16.9293C13.1695 16.8137 13.4276 16.7547 13.6882 16.7556H19.2032C19.6123 16.7556 20.0046 16.9441 20.2938 17.2796C20.5831 17.615 20.7456 18.0701 20.7456 18.5445C20.7456 19.0189 20.5831 19.4739 20.2938 19.8094C20.0046 20.1449 19.6123 20.3334 19.2032 20.3334H16.1185C15.9432 20.3334 15.7751 20.4141 15.6511 20.5579C15.5271 20.7017 15.4575 20.8967 15.4575 21.1C15.4575 21.3034 15.5271 21.4984 15.6511 21.6421C15.7751 21.7859 15.9432 21.8667 16.1185 21.8667H19.6439C19.6936 21.8668 19.7431 21.8603 19.7915 21.8475L27.1728 19.8785L27.1992 19.8708C27.477 19.783 27.773 19.8173 28.0304 19.9671C28.2877 20.117 28.4882 20.3719 28.5934 20.6827C28.6986 20.9936 28.7011 21.3387 28.6003 21.6515C28.4996 21.9644 28.3027 22.223 28.0475 22.3778Z" fill="#156A85" stroke="#156A85" stroke-width="0.75"/>
</svg>
