<?xml version="1.0" encoding="UTF-8"?>
<svg id="Dimensions" xmlns="http://www.w3.org/2000/svg" version="1.1" viewBox="0 0 511.2 510.8">
  <defs>
    <style>
      .cls-1{
        fill: #000;
      }
      .cls-1, .cls-2 {
        stroke-width: 0px;
      }

      .cls-2 {
        fill: none;
      }
    </style>
  </defs>
  <g id="Opt2">
    <path class="cls-1" d="M252.9,310.2c18-15.4,42.4-31.4,42.4-31.4,0,0,26.4-17.7,41.3-23.4-29.4-24.8-47.2-51.7-53-73.5-9.3-35,23.3-58.1,45-48.4,17.6,7.9,27.6,23.1,27.6,23.1l11-12.6c5.9-6.7,13.9-11.4,22.8-12.3,3.6-.4,7.7-.3,11.9.8,14.4,3.5,30.2,22.6,24,52.9-.6,2.7-1.7,5.5-2.8,8.4,0,0-4.6,11.8-11,20.6-4.6,6.2-9.1,10.3-13.2,14.4-7.2,7.1-26.3,18.9-46.1,30.2,6.8,5.9,28.3,15.6,34.1,17.7,19.5,7.2,37.1,6.5,57.2,4.4,14.8-1.5,42-12.4,66.7-25.7C510.8,114.4,396.4,0,255.4,0c0,0-64.1,190.1-2.5,310.2h0Z"/>
    <path class="cls-1" d="M225.2,451.8s4.5,14.1,22,14.1c0,0,60.9,6.4,2.1-132.1-2.6,3-.4.5-2.6,3.5-22.4,31-33.9,86.3-21.6,114.4h0Z"/>
    <path class="cls-1" d="M509.7,278.7s-59.4,30.1-111.1,14.8c-17.6-5.2-37.1-18-54.1-31.9-20.7,8-48.6,28.2-48.6,28.2,0,0-19.6,14.7-36.3,32.4,10.3,18.7,33.8,70,36.3,112.5,2.4,40.2-29,63.7-67.4,60.9-17.9-1.3-53.4-18.8-56.9-53.8-6-59.4,44-95.6,68.3-120.3-24-52.3-101.5-85-42.4-232.4,0,0-68,27.4-141,6.2,0,0,107.6-9.4,198.9-95.2C114.3,0,0,114.3,0,255.4s114.4,255.4,255.4,255.4,242.6-102,254.3-232.1h0Z"/>
  </g>
  <rect class="cls-2" x=".5" y=".5" width="510.2" height="651.7"/>
</svg>