<svg width="32" height="32" viewBox="0 0 32 32" fill="none" xmlns="http://www.w3.org/2000/svg">
<path d="M27.9999 23.627C27.9999 23.8567 27.9051 24.077 27.7363 24.2394C27.5675 24.4018 27.3386 24.493 27.0999 24.493H20.9799C20.7795 25.2123 20.338 25.8478 19.7241 26.3011C19.1101 26.7543 18.3578 27 17.584 27C16.8101 27 16.0578 26.7543 15.4439 26.3011C14.8299 25.8478 14.3884 25.2123 14.188 24.493H4.9C4.6613 24.493 4.43239 24.4018 4.2636 24.2394C4.09482 24.077 4 23.8567 4 23.627C4 23.3973 4.09482 23.177 4.2636 23.0146C4.43239 22.8522 4.6613 22.7609 4.9 22.7609H14.188C14.3884 22.0417 14.8299 21.4062 15.4439 20.9529C16.0578 20.4996 16.8101 20.254 17.584 20.254C18.3578 20.254 19.1101 20.4996 19.7241 20.9529C20.338 21.4062 20.7795 22.0417 20.9799 22.7609H27.0999C27.3386 22.7609 27.5675 22.8522 27.7363 23.0146C27.9051 23.177 27.9999 23.3973 27.9999 23.627ZM27.9999 8.37302C27.9999 8.60271 27.9051 8.82299 27.7363 8.98541C27.5675 9.14782 27.3386 9.23907 27.0999 9.23907H24.1599C23.9595 9.95832 23.518 10.5938 22.904 11.0471C22.29 11.5004 21.5378 11.746 20.7639 11.746C19.9901 11.746 19.2378 11.5004 18.6238 11.0471C18.0098 10.5938 17.5684 9.95832 17.368 9.23907H4.9C4.78181 9.23907 4.66478 9.21667 4.55558 9.17314C4.44639 9.12962 4.34718 9.06583 4.2636 8.98541C4.18003 8.90499 4.11374 8.80952 4.06851 8.70444C4.02328 8.59937 4 8.48675 4 8.37302C4 8.25929 4.02328 8.14667 4.06851 8.0416C4.11374 7.93653 4.18003 7.84105 4.2636 7.76064C4.34718 7.68022 4.44639 7.61642 4.55558 7.5729C4.66478 7.52938 4.78181 7.50698 4.9 7.50698H17.368C17.5684 6.78772 18.0098 6.1522 18.6238 5.69894C19.2378 5.24568 19.9901 5 20.7639 5C21.5378 5 22.29 5.24568 22.904 5.69894C23.518 6.1522 23.9595 6.78772 24.1599 7.50698H27.0999C27.2186 7.50542 27.3363 7.52676 27.4462 7.56974C27.5562 7.61271 27.656 7.67644 27.7399 7.75717C27.8238 7.83791 27.89 7.934 27.9347 8.03977C27.9794 8.14555 28.0015 8.25886 27.9999 8.37302ZM27.9999 15.9942C28.0015 16.1084 27.9794 16.2217 27.9347 16.3275C27.89 16.4333 27.8238 16.5293 27.7399 16.6101C27.656 16.6908 27.5562 16.7545 27.4462 16.7975C27.3363 16.8405 27.2186 16.8618 27.0999 16.8603H13.06C12.8595 17.5795 12.4181 18.2151 11.8041 18.6683C11.1901 19.1216 10.4378 19.3673 9.66398 19.3673C8.89012 19.3673 8.13788 19.1216 7.52388 18.6683C6.90989 18.2151 6.46844 17.5795 6.26799 16.8603H4.9C4.6613 16.8603 4.43239 16.769 4.2636 16.6066C4.09482 16.4442 4 16.2239 4 15.9942C4 15.7645 4.09482 15.5443 4.2636 15.3818C4.43239 15.2194 4.6613 15.1282 4.9 15.1282H6.26799C6.46844 14.4089 6.90989 13.7734 7.52388 13.3201C8.13788 12.8669 8.89012 12.6212 9.66398 12.6212C10.4378 12.6212 11.1901 12.8669 11.8041 13.3201C12.4181 13.7734 12.8595 14.4089 13.06 15.1282H27.0999C27.3386 15.1282 27.5675 15.2194 27.7363 15.3818C27.9051 15.5443 27.9999 15.7645 27.9999 15.9942Z" fill="#156A85"/>
</svg>
