<svg width="92" height="93" viewBox="0 0 92 93" fill="none" xmlns="http://www.w3.org/2000/svg">
<path d="M11.5 46.308C11.5 41.7774 12.3924 37.2911 14.1262 33.1054C15.8599 28.9197 18.4012 25.1164 21.6048 21.9128C24.8084 18.7092 28.6117 16.1679 32.7974 14.4341C36.9832 12.7004 41.4694 11.808 46 11.808C50.5306 11.808 55.0168 12.7004 59.2026 14.4341C63.3883 16.1679 67.1916 18.7092 70.3952 21.9128C73.5988 25.1164 76.1401 28.9197 77.8738 33.1054C79.6076 37.2911 80.5 41.7774 80.5 46.308C80.5 55.458 76.8652 64.2332 70.3952 70.7032C63.9252 77.1732 55.15 80.808 46 80.808C36.85 80.808 28.0748 77.1732 21.6048 70.7032C15.1348 64.2332 11.5 55.458 11.5 46.308ZM46 40.558L43.5735 37.729C42.8415 36.859 41.9409 36.1461 40.9261 35.6335C39.9112 35.1208 38.8031 34.8189 37.6684 34.7459C36.5338 34.6729 35.3961 34.8304 34.3239 35.2088C33.2518 35.5873 32.2673 36.1789 31.4299 36.9479C30.5925 37.717 29.9194 38.6476 29.4512 39.6838C28.9831 40.7199 28.7295 41.8401 28.7058 42.9769C28.6822 44.1136 28.8889 45.2434 29.3135 46.2981C29.7381 47.3529 30.3718 48.3107 31.1765 49.114L44.9765 63.144C45.5342 63.719 46.46 63.719 47.0235 63.144L60.8235 49.114C61.6199 48.3087 62.2456 47.351 62.6634 46.2983C63.0812 45.2456 63.2824 44.1195 63.2551 42.9873C63.2277 41.855 62.9723 40.7399 62.5041 39.7087C62.0359 38.6774 61.3646 37.7511 60.5302 36.9853C59.6959 36.2194 58.7156 35.6296 57.6481 35.2512C56.5807 34.8728 55.4478 34.7136 54.3174 34.783C53.1869 34.8524 52.0821 35.1491 51.069 35.6553C50.0558 36.1615 49.1551 36.8668 48.4207 37.729L46 40.558Z" fill="#156A85"/>
</svg>
