<svg width="72" height="71" viewBox="0 0 72 71" fill="none" xmlns="http://www.w3.org/2000/svg">
<g clip-path="url(#clip0_3425_9627)">
<path d="M17.0574 6.11548C20.2885 5.57466 23.5473 5.852 26.5703 6.85044L33.4762 17.5975L23.0203 28.0534C22.8123 28.2614 22.6875 28.5526 22.7014 28.8577C22.7152 29.1627 22.84 29.4401 23.0619 29.6481L38.5932 44.07C38.9953 44.4444 39.6193 44.4721 40.0492 44.1116C40.4791 43.751 40.5762 43.1409 40.285 42.6694L31.9092 29.0657L44.4867 18.5821C44.8473 18.2909 44.9721 17.7917 44.8195 17.3618L41.6578 8.56997C45.61 6.25415 50.3109 5.35279 54.9287 6.12935C64.4971 7.71021 71.5 15.9751 71.5 25.6682V26.4725C71.5 32.2274 69.1148 37.7327 64.8992 41.6571L39.8412 65.051C38.8012 66.0217 37.4283 66.5626 36 66.5626C34.5717 66.5626 33.1988 66.0217 32.1588 65.051L7.10078 41.6571C2.88516 37.7327 0.5 32.2274 0.5 26.4725V25.6682C0.5 15.9751 7.50293 7.71021 17.0574 6.11548Z" fill="#156A85"/>
</g>
<defs>
<clipPath id="clip0_3425_9627">
<rect width="71" height="71" fill="white" transform="translate(0.5)"/>
</clipPath>
</defs>
</svg>
