<svg width="32" height="32" viewBox="0 0 32 32" fill="none" xmlns="http://www.w3.org/2000/svg">
<path d="M6.77697 7.538L6.77698 7.53799L6.77646 7.535C6.70404 7.11526 6.78085 6.7717 6.99479 6.4575C7.21264 6.13755 7.49121 5.95465 7.86677 5.88221L7.86677 5.88223L7.87242 5.8811L18.3563 3.77543C18.7204 3.70636 19.0187 3.77708 19.3054 3.99358C19.602 4.21751 19.7882 4.51773 19.8613 4.94421L19.8618 4.94733L19.9668 5.54473H13.28C11.9242 5.54473 10.7521 6.06362 9.80257 7.06419C8.85423 8.06355 8.37652 9.27986 8.37652 10.6716V17.0387L6.77697 7.538Z" fill="#156A85" stroke="#156A85" stroke-width="1.5"/>
<path d="M25.1249 10.6706V10.6716V21.625H24.5H21C20.6507 21.625 20.0664 21.7222 19.6633 22.1485C19.3463 22.4838 19.1262 22.9917 19.125 23.5269V23.5288V27.5V28.125H13.2799C12.9577 28.125 12.6958 28.0161 12.4484 27.7554C12.1997 27.4933 12.0787 27.1947 12.0781 26.811V10.6443C12.0781 10.268 12.1983 9.98007 12.4479 9.728C12.7051 9.46826 12.9769 9.35815 13.3058 9.35815H23.9231C24.2453 9.35815 24.5079 9.46713 24.7561 9.72831C25.005 9.99006 25.1253 10.2878 25.1249 10.6706ZM23.9727 24.3938L24.9527 23.3049C24.9011 23.3977 24.8399 23.4802 24.7692 23.5545L24.7681 23.5557L23.9727 24.3938Z" stroke="#156A85" stroke-width="1.75"/>
</svg>
