
<svg width="32" height="32" viewBox="0 0 32 32" fill="none" xmlns="http://www.w3.org/2000/svg">
<g filter="url(#filter0_d_3791_15808)">
<mask id="path-1-inside-1_3791_15808" fill="white">
<path d="M6.03738 7.66251C5.93354 7.06069 6.04603 6.51831 6.37485 6.03539C6.70367 5.55247 7.15363 5.25594 7.72473 5.14579L18.2122 3.03939C18.7833 2.92997 19.2984 3.04851 19.7573 3.39502C20.2163 3.74152 20.4973 4.21569 20.6005 4.81752L20.8601 6.29473H13.28C12.1378 6.29473 11.16 6.7233 10.3466 7.58045C9.53322 8.43759 9.12652 9.46799 9.12652 10.6716V21.1215C8.84963 20.9574 8.61184 20.7386 8.41317 20.465C8.21449 20.1914 8.08885 19.8814 8.03624 19.5349L6.03738 7.66251Z"/>
</mask>
<path d="M6.03738 7.66251C5.93354 7.06069 6.04603 6.51831 6.37485 6.03539C6.70367 5.55247 7.15363 5.25594 7.72473 5.14579L18.2122 3.03939C18.7833 2.92997 19.2984 3.04851 19.7573 3.39502C20.2163 3.74152 20.4973 4.21569 20.6005 4.81752L20.8601 6.29473H13.28C12.1378 6.29473 11.16 6.7233 10.3466 7.58045C9.53322 8.43759 9.12652 9.46799 9.12652 10.6716V21.1215C8.84963 20.9574 8.61184 20.7386 8.41317 20.465C8.21449 20.1914 8.08885 19.8814 8.03624 19.5349L6.03738 7.66251Z" fill="#156A85"/>
<path d="M6.03738 7.66251C5.93354 7.06069 6.04603 6.51831 6.37485 6.03539C6.70367 5.55247 7.15363 5.25594 7.72473 5.14579L18.2122 3.03939C18.7833 2.92997 19.2984 3.04851 19.7573 3.39502C20.2163 3.74152 20.4973 4.21569 20.6005 4.81752L20.8601 6.29473H13.28C12.1378 6.29473 11.16 6.7233 10.3466 7.58045C9.53322 8.43759 9.12652 9.46799 9.12652 10.6716V21.1215C8.84963 20.9574 8.61184 20.7386 8.41317 20.465C8.21449 20.1914 8.08885 19.8814 8.03624 19.5349L6.03738 7.66251Z" stroke="#156A85" stroke-width="3" mask="url(#path-1-inside-1_3791_15808)"/>
</g>
<mask id="path-2-inside-2_3791_15808" fill="white">
<path d="M11.2032 26.8118V10.6445C11.2032 10.0427 11.4109 9.53204 11.8263 9.11258C12.2416 8.69313 12.7348 8.4834 13.3059 8.4834H23.9233C24.4944 8.4834 24.9834 8.6975 25.3905 9.12571C25.7975 9.55392 26.0007 10.0693 26 10.6719V22.6263C26 22.9181 25.9481 23.1964 25.8442 23.4612C25.7404 23.726 25.5933 23.9584 25.4029 24.1582L21.4052 28.371C21.2148 28.5716 20.994 28.7267 20.7427 28.8361C20.4914 28.9455 20.2277 29.0002 19.9515 29.0002H13.28C12.7089 29.0002 12.2202 28.7861 11.8138 28.3579C11.4075 27.9297 11.2039 27.4143 11.2032 26.8118ZM24.5001 22.5002H21.0001C20.7614 22.5002 20.4651 22.5746 20.2992 22.75C20.1333 22.9254 20.0008 23.2198 20.0001 23.5291V27.5002L24.5001 22.5002Z"/>
</mask>
<path d="M11.2032 26.8118V10.6445C11.2032 10.0427 11.4109 9.53204 11.8263 9.11258C12.2416 8.69313 12.7348 8.4834 13.3059 8.4834H23.9233C24.4944 8.4834 24.9834 8.6975 25.3905 9.12571C25.7975 9.55392 26.0007 10.0693 26 10.6719V22.6263C26 22.9181 25.9481 23.1964 25.8442 23.4612C25.7404 23.726 25.5933 23.9584 25.4029 24.1582L21.4052 28.371C21.2148 28.5716 20.994 28.7267 20.7427 28.8361C20.4914 28.9455 20.2277 29.0002 19.9515 29.0002H13.28C12.7089 29.0002 12.2202 28.7861 11.8138 28.3579C11.4075 27.9297 11.2039 27.4143 11.2032 26.8118ZM24.5001 22.5002H21.0001C20.7614 22.5002 20.4651 22.5746 20.2992 22.75C20.1333 22.9254 20.0008 23.2198 20.0001 23.5291V27.5002L24.5001 22.5002Z" stroke="#156A85" stroke-width="3.5" mask="url(#path-2-inside-2_3791_15808)"/>
<defs>
<filter id="filter0_d_3791_15808" x="2" y="3" width="22.8601" height="26.1211" filterUnits="userSpaceOnUse" color-interpolation-filters="sRGB">
<feFlood flood-opacity="0" result="BackgroundImageFix"/>
<feColorMatrix in="SourceAlpha" type="matrix" values="0 0 0 0 0 0 0 0 0 0 0 0 0 0 0 0 0 0 127 0" result="hardAlpha"/>
<feOffset dy="4"/>
<feGaussianBlur stdDeviation="2"/>
<feComposite in2="hardAlpha" operator="out"/>
<feColorMatrix type="matrix" values="0 0 0 0 0 0 0 0 0 0 0 0 0 0 0 0 0 0 0.25 0"/>
<feBlend mode="normal" in2="BackgroundImageFix" result="effect1_dropShadow_3791_15808"/>
<feBlend mode="normal" in="SourceGraphic" in2="effect1_dropShadow_3791_15808" result="shape"/>
</filter>
</defs>
</svg>
