<svg width="32" height="32" viewBox="0 0 32 32" fill="none" xmlns="http://www.w3.org/2000/svg">
<path d="M11.2033 26.8115V10.6443C11.2033 10.0425 11.4109 9.53182 11.8263 9.11237C12.2416 8.69291 12.7349 8.48319 13.306 8.48319H23.9233C24.4944 8.48319 24.9834 8.69729 25.3905 9.1255C25.7975 9.55371 26.0007 10.0691 26 10.6716V22.6261C26 22.9179 25.9481 23.1962 25.8442 23.461C25.7404 23.7258 25.5933 23.9582 25.4029 24.158L21.4052 28.3708C21.2149 28.5714 20.994 28.7264 20.7427 28.8359C20.4915 28.9453 20.2277 29 19.9515 29H13.28C12.7089 29 12.2202 28.7859 11.8138 28.3577C11.4075 27.9295 11.204 27.4141 11.2033 26.8115ZM6.03738 7.66251C5.93354 7.06069 6.04603 6.51831 6.37485 6.03539C6.70367 5.55247 7.15363 5.25594 7.72473 5.14579L18.2122 3.03939C18.7833 2.92997 19.2984 3.04851 19.7573 3.39502C20.2163 3.74152 20.4973 4.21569 20.6005 4.81752L20.8601 6.29473H13.28C12.1378 6.29473 11.16 6.7233 10.3466 7.58045C9.53322 8.43759 9.12652 9.46799 9.12652 10.6716V21.1215C8.84963 20.9574 8.61184 20.7386 8.41317 20.465C8.21449 20.1914 8.08885 19.8814 8.03624 19.5349L6.03738 7.66251ZM23.9233 22.4346H20.8082C20.514 22.4346 20.2675 22.5397 20.0688 22.7498C19.8702 22.9599 19.7705 23.2195 19.7698 23.5289V26.8115L23.9233 22.4346Z" fill="black"/>
</svg>
