<svg width="32" height="32" viewBox="0 0 32 32" fill="none" xmlns="http://www.w3.org/2000/svg">
<path d="M8 27.125C7.37868 27.125 6.875 26.6213 6.875 26L6.875 13.1889C6.875 12.5302 7.18048 11.9087 7.70204 11.5064L14.702 6.10638C15.4668 5.51643 16.5332 5.51643 17.298 6.10638L24.298 11.5064C24.8195 11.9087 25.125 12.5302 25.125 13.1889L25.125 26C25.125 26.6213 24.6213 27.125 24 27.125L20.5 27.125C19.8787 27.125 19.375 26.6213 19.375 26L19.375 21.0714C19.375 19.2075 17.864 17.6964 16 17.6964C14.136 17.6964 12.625 19.2075 12.625 21.0714L12.625 26C12.625 26.6213 12.1213 27.125 11.5 27.125H8Z" stroke="#156A85" stroke-width="1.75"/>
</svg>
