<svg width="32" height="32" viewBox="0 0 32 32" fill="none" xmlns="http://www.w3.org/2000/svg">
<path d="M8 28C6.89543 28 6 27.1046 6 26L6 13.1889C6 12.259 6.43127 11.3816 7.16759 10.8136L14.1676 5.41357C15.2472 4.5807 16.7528 4.5807 17.8324 5.41357L24.8324 10.8136C25.5687 11.3816 26 12.259 26 13.1889L26 26C26 27.1046 25.1046 28 24 28L20.5 28C19.3954 28 18.5 27.1046 18.5 26L18.5 21.0714C18.5 19.6907 17.3807 18.5714 16 18.5714C14.6193 18.5714 13.5 19.6907 13.5 21.0714L13.5 26C13.5 27.1046 12.6046 28 11.5 28H8Z" fill="#156A85"/>
</svg>
