<svg width="32" height="32" viewBox="0 0 32 32" fill="none" xmlns="http://www.w3.org/2000/svg">
<path d="M16 3C18.9174 3 21.7153 4.17398 23.7782 6.26367C25.8411 8.35336 27 11.1876 27 14.1429C27 18.756 23.5289 23.5895 16.7333 28.7524C16.5218 28.9131 16.2645 29 16 29C15.7355 29 15.4782 28.9131 15.2667 28.7524C8.47111 23.5895 5 18.756 5 14.1429C5 11.1876 6.15893 8.35336 8.22183 6.26367C10.2847 4.17398 13.0826 3 16 3ZM16 5.47619C13.7309 5.47619 11.5548 6.38928 9.95031 8.0146C8.34583 9.63991 7.44444 11.8443 7.44444 14.1429C7.44444 17.4981 10.0331 21.3684 15.3253 25.6646L16 26.2044L16.6747 25.6646C21.9669 21.3684 24.5556 17.4981 24.5556 14.1429C24.5556 11.8443 23.6542 9.63991 22.0497 8.0146C20.4452 6.38928 18.2691 5.47619 16 5.47619ZM16 11.6667C16.6483 11.6667 17.2701 11.9276 17.7285 12.3919C18.1869 12.8563 18.4444 13.4861 18.4444 14.1429C18.4444 14.7996 18.1869 15.4294 17.7285 15.8938C17.2701 16.3582 16.6483 16.619 16 16.619C15.3517 16.619 14.7299 16.3582 14.2715 15.8938C13.8131 15.4294 13.5556 14.7996 13.5556 14.1429C13.5556 13.4861 13.8131 12.8563 14.2715 12.3919C14.7299 11.9276 15.3517 11.6667 16 11.6667Z" fill="#156A85"/>
</svg>
