<svg width="32" height="32" viewBox="0 0 32 32" fill="none" xmlns="http://www.w3.org/2000/svg">
<path fill-rule="evenodd" clip-rule="evenodd" d="M23.075 6.18447C21.0121 4.12157 18.2142 2.96265 15.2969 2.96265C12.3795 2.96265 9.5816 4.12157 7.5187 6.18447C5.4558 8.24737 4.29688 11.0453 4.29688 13.9626C4.29687 16.88 5.4558 19.6779 7.5187 21.7408L14.4109 28.633C14.6459 28.8679 14.9646 28.9999 15.2969 28.9999C15.6292 28.9999 15.9478 28.8679 16.1828 28.633L23.075 21.7408C24.0965 20.7194 24.9067 19.5067 25.4595 18.1722C26.0124 16.8376 26.2969 15.4072 26.2969 13.9626C26.2969 12.5181 26.0124 11.0877 25.4595 9.75312C24.9067 8.41854 24.0965 7.20591 23.075 6.18447ZM13.4172 13.9626C13.4172 13.4641 13.6152 12.986 13.9677 12.6335C14.3202 12.281 14.7983 12.0829 15.2969 12.0829H15.3094C15.8079 12.0829 16.286 12.281 16.6385 12.6335C16.9911 12.986 17.1891 13.4641 17.1891 13.9626V13.9752C17.1891 14.4737 16.9911 14.9518 16.6385 15.3043C16.286 15.6568 15.8079 15.8549 15.3094 15.8549H15.2969C14.7983 15.8549 14.3202 15.6568 13.9677 15.3043C13.6152 14.9518 13.4172 14.4737 13.4172 13.9752V13.9626Z" fill="#E98872"/>
</svg>
