<svg width="32" height="32" viewBox="0 0 32 32" fill="none" xmlns="http://www.w3.org/2000/svg">
<path d="M19.8592 8.28728C19.8592 6.15747 18.1327 4.43091 16.0029 4.43091C13.873 4.43091 12.1465 6.15747 12.1465 8.28728V14.7146C12.1465 16.8444 13.873 18.571 16.0029 18.571C18.1327 18.571 19.8592 16.8444 19.8592 14.7146V8.28728Z" fill="#156A85" stroke="#156A85" stroke-width="1.92819" stroke-linecap="round" stroke-linejoin="round"/>
<path d="M25.0003 14.7131C25.0003 15.8948 24.7676 17.0649 24.3154 18.1566C23.8632 19.2483 23.2004 20.2403 22.3648 21.0758C21.5292 21.9114 20.5373 22.5742 19.4456 23.0264C18.3539 23.4786 17.1838 23.7113 16.0021 23.7113M16.0021 23.7113C14.8205 23.7113 13.6504 23.4786 12.5586 23.0264C11.4669 22.5742 10.475 21.9114 9.63942 21.0758C8.80386 20.2403 8.14106 19.2483 7.68885 18.1566C7.23665 17.0649 7.00391 15.8948 7.00391 14.7131M16.0021 23.7113V27.5677" stroke="#156A85" stroke-width="1.92819" stroke-linecap="round" stroke-linejoin="round"/>
</svg>
