<svg width="40" height="40" viewBox="0 0 56 56" fill="none" xmlns="http://www.w3.org/2000/svg">
<circle cx="28" cy="28" r="28" fill="#156A85"/>
<path d="M31.502 12C31.502 10.067 29.9349 8.5 28.002 8.5C26.069 8.5 24.502 10.067 24.502 12V17.8333C24.502 19.7663 26.069 21.3333 28.002 21.3333C29.9349 21.3333 31.502 19.7663 31.502 17.8333V12Z" stroke="white" stroke-width="1.75" stroke-linecap="round" stroke-linejoin="round"/>
<path d="M36.1683 17.832C36.1683 18.9045 35.9571 19.9665 35.5466 20.9573C35.1362 21.9481 34.5347 22.8484 33.7763 23.6067C33.018 24.3651 32.1177 24.9666 31.1269 25.377C30.1361 25.7875 29.0741 25.9987 28.0016 25.9987M28.0016 25.9987C26.9292 25.9987 25.8672 25.7875 24.8764 25.377C23.8856 24.9666 22.9853 24.3651 22.2269 23.6067C21.4686 22.8484 20.867 21.9481 20.4566 20.9573C20.0462 19.9665 19.835 18.9045 19.835 17.832M28.0016 25.9987V29.4987" stroke="white" stroke-width="1.75" stroke-linecap="round" stroke-linejoin="round"/>
<path d="M11.36 43.192C10.8267 43.192 10.2933 43.0907 9.76 42.888C9.22667 42.6747 8.768 42.4133 8.384 42.104L9.248 40.92C9.6 41.1867 9.952 41.4 10.304 41.56C10.656 41.72 11.0293 41.8 11.424 41.8C11.8507 41.8 12.1653 41.7093 12.368 41.528C12.5707 41.3467 12.672 41.1227 12.672 40.856C12.672 40.632 12.5867 40.4507 12.416 40.312C12.256 40.1627 12.048 40.0347 11.792 39.928C11.536 39.8107 11.2693 39.6987 10.992 39.592C10.6507 39.464 10.3093 39.3093 9.968 39.128C9.63733 38.936 9.36533 38.696 9.152 38.408C8.93867 38.1093 8.832 37.7413 8.832 37.304C8.832 36.6107 9.088 36.0453 9.6 35.608C10.112 35.1707 10.8053 34.952 11.68 34.952C12.2347 34.952 12.7307 35.048 13.168 35.24C13.6053 35.432 13.984 35.6507 14.304 35.896L13.456 37.016C13.1787 36.8133 12.896 36.6533 12.608 36.536C12.3307 36.408 12.0373 36.344 11.728 36.344C11.3333 36.344 11.04 36.4293 10.848 36.6C10.656 36.76 10.56 36.9627 10.56 37.208C10.56 37.5173 10.72 37.752 11.04 37.912C11.36 38.072 11.7333 38.2267 12.16 38.376C12.5227 38.504 12.8747 38.664 13.216 38.856C13.5573 39.0373 13.84 39.2773 14.064 39.576C14.2987 39.8747 14.416 40.2693 14.416 40.76C14.416 41.432 14.1547 42.008 13.632 42.488C13.1093 42.9573 12.352 43.192 11.36 43.192ZM16.0586 46.104V35.144H17.5786L17.7066 35.976H17.7706C18.1013 35.6987 18.4693 35.4587 18.8746 35.256C19.2906 35.0533 19.712 34.952 20.1386 34.952C21.12 34.952 21.8773 35.3147 22.4106 36.04C22.9546 36.7653 23.2266 37.736 23.2266 38.952C23.2266 39.848 23.0666 40.616 22.7466 41.256C22.4266 41.8853 22.0106 42.3653 21.4986 42.696C20.9973 43.0267 20.4533 43.192 19.8666 43.192C19.5253 43.192 19.184 43.1173 18.8426 42.968C18.5013 42.808 18.1706 42.5947 17.8506 42.328L17.8986 43.64V46.104H16.0586ZM19.4826 41.672C20.0053 41.672 20.4426 41.4427 20.7946 40.984C21.1466 40.5253 21.3226 39.8533 21.3226 38.968C21.3226 38.1787 21.1893 37.5653 20.9226 37.128C20.656 36.6907 20.224 36.472 19.6266 36.472C19.072 36.472 18.496 36.7653 17.8986 37.352V41.016C18.1866 41.2507 18.464 41.4213 18.7306 41.528C18.9973 41.624 19.248 41.672 19.4826 41.672ZM28.4499 43.192C27.7245 43.192 27.0685 43.032 26.4819 42.712C25.8952 42.3813 25.4312 41.912 25.0899 41.304C24.7485 40.6853 24.5779 39.944 24.5779 39.08C24.5779 38.2267 24.7485 37.4907 25.0899 36.872C25.4419 36.2533 25.8952 35.7787 26.4499 35.448C27.0045 35.1173 27.5859 34.952 28.1939 34.952C28.9085 34.952 29.5059 35.112 29.9859 35.432C30.4659 35.7413 30.8285 36.1787 31.0739 36.744C31.3192 37.2987 31.4419 37.944 31.4419 38.68C31.4419 39.064 31.4152 39.3627 31.3619 39.576H26.3699C26.4552 40.2693 26.7059 40.808 27.1219 41.192C27.5379 41.576 28.0605 41.768 28.6899 41.768C29.0312 41.768 29.3459 41.72 29.6339 41.624C29.9325 41.5173 30.2259 41.3733 30.5139 41.192L31.1379 42.344C30.7645 42.5893 30.3485 42.792 29.8899 42.952C29.4312 43.112 28.9512 43.192 28.4499 43.192ZM26.3539 38.328H29.8419C29.8419 37.72 29.7085 37.2453 29.4419 36.904C29.1752 36.552 28.7752 36.376 28.2419 36.376C27.7832 36.376 27.3725 36.5467 27.0099 36.888C26.6579 37.2187 26.4392 37.6987 26.3539 38.328ZM34.9158 43.192C34.2331 43.192 33.6731 42.9787 33.2358 42.552C32.8091 42.1253 32.5958 41.5707 32.5958 40.888C32.5958 40.0453 32.9638 39.3947 33.6998 38.936C34.4358 38.4667 35.6091 38.1467 37.2198 37.976C37.2091 37.56 37.0971 37.2027 36.8838 36.904C36.6811 36.5947 36.3131 36.44 35.7798 36.44C35.3958 36.44 35.0171 36.5147 34.6438 36.664C34.2811 36.8133 33.9238 36.9947 33.5718 37.208L32.8997 35.976C33.3371 35.6987 33.8278 35.4587 34.3718 35.256C34.9264 35.0533 35.5131 34.952 36.1318 34.952C37.1131 34.952 37.8438 35.2453 38.3238 35.832C38.8144 36.408 39.0598 37.2453 39.0598 38.344V43H37.5398L37.4118 42.136H37.3478C36.9958 42.4347 36.6171 42.6853 36.2118 42.888C35.8171 43.0907 35.3851 43.192 34.9158 43.192ZM35.5078 41.752C35.8278 41.752 36.1158 41.6773 36.3718 41.528C36.6384 41.368 36.9211 41.1547 37.2198 40.888V39.128C36.1531 39.2667 35.4118 39.4747 34.9958 39.752C34.5798 40.0187 34.3718 40.3493 34.3718 40.744C34.3718 41.096 34.4784 41.352 34.6918 41.512C34.9051 41.672 35.1771 41.752 35.5078 41.752ZM41.2618 43V31.704H43.0698V38.76H43.1178L46.0298 35.144H48.0458L45.3578 38.344L48.3177 43H46.3178L44.3018 39.592L43.0698 41V43H41.2618Z" fill="white"/>
</svg>
