<svg width="32" height="32" viewBox="0 0 32 32" fill="none" xmlns="http://www.w3.org/2000/svg">
<path d="M26.2841 9.96784V17.4117C26.2842 17.73 26.2247 18.0451 26.1091 18.339C25.9935 18.6329 25.8239 18.8997 25.6102 19.1242L18.9588 26.1456C18.7461 26.3714 18.4931 26.5505 18.2145 26.6726C17.9359 26.7947 17.6371 26.8573 17.3354 26.8569H10.2859C9.68554 26.857 9.09102 26.7323 8.53631 26.4899C7.98159 26.2475 7.47755 25.8921 7.05297 25.444C6.62839 24.9959 6.29159 24.4639 6.0618 23.8784C5.83202 23.2929 5.71375 22.6654 5.71375 22.0316V9.96667C5.71404 8.68713 6.19576 7.46011 7.05297 6.55545C7.91018 5.65079 9.07268 5.14258 10.2848 5.14258H21.7141C22.9264 5.14258 24.0891 5.65095 24.9463 6.55587C25.8036 7.46078 26.2841 8.6881 26.2841 9.96784Z" stroke="#156A85" stroke-width="2.28571" stroke-linecap="round" stroke-linejoin="round"/>
<path d="M17.7918 26.8567L17.1716 21.8981C17.1006 21.3356 17.1591 20.7644 17.3428 20.228C17.5264 19.6916 17.8303 19.2043 18.2312 18.8033C18.632 18.4024 19.1193 18.0984 19.6557 17.9146C20.1921 17.7309 20.7634 17.6722 21.326 17.743L26.2852 18.3632" stroke="#156A85" stroke-width="2.28571" stroke-linecap="round" stroke-linejoin="round"/>
</svg>
