<svg width="32" height="32" viewBox="0 0 32 32" fill="none" xmlns="http://www.w3.org/2000/svg">
<path d="M26.2832 9.96809V17.412C26.2834 17.7302 26.2239 18.0453 26.1083 18.3392C25.9926 18.6331 25.8231 18.9 25.6094 19.1245L18.958 26.1458C18.7452 26.3716 18.4923 26.5507 18.2136 26.6728C17.935 26.7949 17.6362 26.8575 17.3346 26.8571H10.2851C9.68469 26.8573 9.09017 26.7326 8.53545 26.4901C7.98074 26.2477 7.4767 25.8923 7.05212 25.4442C6.62754 24.9962 6.29073 24.4642 6.06095 23.8787C5.83116 23.2932 5.71289 22.6656 5.71289 22.0318V9.96691C5.71319 8.68738 6.19491 7.46035 7.05212 6.55569C7.90932 5.65104 9.07182 5.14282 10.2839 5.14282H21.7133C22.9256 5.14282 24.0882 5.6512 24.9455 6.55611C25.8027 7.46102 26.2832 8.68835 26.2832 9.96809Z" stroke="#156A85" stroke-width="2.28571" stroke-linecap="round" stroke-linejoin="round"/>
<path d="M17.7901 26.8572L17.1699 21.8986C17.0989 21.3361 17.1574 20.7649 17.3411 20.2285C17.5247 19.6921 17.8286 19.2048 18.2294 18.8038C18.6303 18.4029 19.1176 18.0989 19.654 17.9151C20.1904 17.7313 20.7617 17.6727 21.3243 17.7435L26.2835 18.3637" stroke="#156A85" stroke-width="2.28571" stroke-linecap="round" stroke-linejoin="round"/>
</svg>
