<svg width="28" height="24" viewBox="0 0 28 24" fill="none" xmlns="http://www.w3.org/2000/svg">
<path d="M20.5 5H2.5C1.83696 5 1.20107 5.26339 0.732233 5.73223C0.263392 6.20107 0 6.83696 0 7.5V21.5C0 22.163 0.263392 22.7989 0.732233 23.2678C1.20107 23.7366 1.83696 24 2.5 24H20.5C21.163 24 21.7989 23.7366 22.2678 23.2678C22.7366 22.7989 23 22.163 23 21.5V7.5C23 6.83696 22.7366 6.20107 22.2678 5.73223C21.7989 5.26339 21.163 5 20.5 5ZM20 21H3V8H20V21ZM28 2.5V18C28 18.3978 27.842 18.7794 27.5607 19.0607C27.2794 19.342 26.8978 19.5 26.5 19.5C26.1022 19.5 25.7206 19.342 25.4393 19.0607C25.158 18.7794 25 18.3978 25 18V3H6C5.60217 3 5.22064 2.84196 4.93934 2.56066C4.65803 2.27936 4.5 1.89782 4.5 1.5C4.5 1.10218 4.65803 0.720644 4.93934 0.43934C5.22064 0.158035 5.60217 8.38353e-09 6 0H25.5C26.163 0 26.7989 0.263392 27.2678 0.732233C27.7366 1.20107 28 1.83696 28 2.5Z" fill="#156A85"/>
</svg>
