<svg width="32" height="32" viewBox="0 0 32 32" fill="none" xmlns="http://www.w3.org/2000/svg">
<path d="M8.30857 27C7.66857 27 7.12381 26.7902 6.67429 26.3707C6.22476 25.9511 6 25.4431 6 24.8467V12.1533C6 11.5578 6.22476 11.0498 6.67429 10.6293C7.12381 10.2098 7.66857 10 8.30857 10H10.2857V9.33333C10.2857 7.848 10.8405 6.588 11.95 5.55333C13.0586 4.51778 14.4086 4 16 4C17.5914 4 18.9419 4.51778 20.0514 5.55333C21.161 6.58889 21.7152 7.84889 21.7143 9.33333V10H23.6929C24.331 10 24.8752 10.2098 25.3257 10.6293C25.7752 11.0489 26 11.5573 26 12.1547V24.8467C26 25.4422 25.7752 25.9502 25.3257 26.3707C24.8762 26.7902 24.3319 27 23.6929 27H8.30857ZM8.30857 25.6667H23.6929C23.949 25.6667 24.1595 25.5898 24.3243 25.436C24.489 25.2822 24.5714 25.0858 24.5714 24.8467V12.1533C24.5714 11.9142 24.489 11.7178 24.3243 11.564C24.1595 11.4102 23.949 11.3333 23.6929 11.3333H8.30714C8.05095 11.3333 7.84048 11.4102 7.67571 11.564C7.51095 11.7178 7.42857 11.9147 7.42857 12.1547V24.8467C7.42857 25.0858 7.51095 25.2822 7.67571 25.436C7.84048 25.5898 8.05143 25.6667 8.30857 25.6667ZM16 21C16.6029 21 17.1105 20.8071 17.5229 20.4213C17.9362 20.0364 18.1429 19.5627 18.1429 19C18.1429 18.4373 17.9362 17.9636 17.5229 17.5787C17.1095 17.1938 16.6019 17.0009 16 17C15.3981 16.9991 14.8905 17.192 14.4771 17.5787C14.0638 17.9636 13.8571 18.4373 13.8571 19C13.8571 19.5627 14.0638 20.0364 14.4771 20.4213C14.8895 20.8071 15.3971 21 16 21ZM11.7143 10H20.2857V9.33333C20.2857 8.22222 19.869 7.27778 19.0357 6.5C18.2024 5.72222 17.1905 5.33333 16 5.33333C14.8095 5.33333 13.7976 5.72222 12.9643 6.5C12.131 7.27778 11.7143 8.22222 11.7143 9.33333V10Z" fill="#156A85"/>
<path d="M7.42857 25.6667V11.3333M8.30857 27C7.66857 27 7.12381 26.7902 6.67429 26.3707C6.22476 25.9511 6 25.4431 6 24.8467V12.1533C6 11.5578 6.22476 11.0498 6.67429 10.6293C7.12381 10.2098 7.66857 10 8.30857 10H10.2857V9.33333C10.2857 7.848 10.8405 6.588 11.95 5.55333C13.0586 4.51778 14.4086 4 16 4C17.5914 4 18.9419 4.51778 20.0514 5.55333C21.161 6.58889 21.7152 7.84889 21.7143 9.33333V10H23.6929C24.331 10 24.8752 10.2098 25.3257 10.6293C25.7752 11.0489 26 11.5573 26 12.1547V24.8467C26 25.4422 25.7752 25.9502 25.3257 26.3707C24.8762 26.7902 24.3319 27 23.6929 27H8.30857ZM8.30857 25.6667H23.6929C23.949 25.6667 24.1595 25.5898 24.3243 25.436C24.489 25.2822 24.5714 25.0858 24.5714 24.8467V12.1533C24.5714 11.9142 24.489 11.7178 24.3243 11.564C24.1595 11.4102 23.949 11.3333 23.6929 11.3333H8.30714C8.05095 11.3333 7.84048 11.4102 7.67571 11.564C7.51095 11.7178 7.42857 11.9147 7.42857 12.1547V24.8467C7.42857 25.0858 7.51095 25.2822 7.67571 25.436C7.84048 25.5898 8.05143 25.6667 8.30857 25.6667ZM16 21C16.6029 21 17.1105 20.8071 17.5229 20.4213C17.9362 20.0364 18.1429 19.5627 18.1429 19C18.1429 18.4373 17.9362 17.9636 17.5229 17.5787C17.1095 17.1938 16.6019 17.0009 16 17C15.3981 16.9991 14.8905 17.192 14.4771 17.5787C14.0638 17.9636 13.8571 18.4373 13.8571 19C13.8571 19.5627 14.0638 20.0364 14.4771 20.4213C14.8895 20.8071 15.3971 21 16 21ZM11.7143 10H20.2857V9.33333C20.2857 8.22222 19.869 7.27778 19.0357 6.5C18.2024 5.72222 17.1905 5.33333 16 5.33333C14.8095 5.33333 13.7976 5.72222 12.9643 6.5C12.131 7.27778 11.7143 8.22222 11.7143 9.33333V10Z" stroke="#156A85" stroke-width="0.75"/>
</svg>
