<svg width="10.8" height="14.4" viewBox="0 0 9 12" fill="none" xmlns="http://www.w3.org/2000/svg">
<path d="M4.80786 2.08984L4.80786 11.3626" stroke="#156A85"/>
<g filter="url(#filter0_d_3755_11592)">
<path d="M7.80774 4C7.80774 2.34315 6.46459 1 4.80774 1C3.15088 1 1.80774 2.34315 1.80774 4C1.80774 5.65685 3.15088 7 4.80774 7C6.46459 7 7.80774 5.65685 7.80774 4Z" fill="#156A85"/>
<path d="M4.80774 0.5C6.74074 0.5 8.30774 2.067 8.30774 4C8.30774 5.933 6.74074 7.5 4.80774 7.5C2.87474 7.5 1.30774 5.933 1.30774 4C1.30774 2.067 2.87474 0.5 4.80774 0.5Z" stroke="#156A85"/>
</g>
<defs>
<filter id="filter0_d_3755_11592" x="0.807739" y="0" width="8" height="8" filterUnits="userSpaceOnUse" color-interpolation-filters="sRGB">
<feFlood flood-opacity="0" result="BackgroundImageFix"/>
<feColorMatrix in="SourceAlpha" type="matrix" values="0 0 0 0 0 0 0 0 0 0 0 0 0 0 0 0 0 0 127 0" result="hardAlpha"/>
<feOffset/>
<feComposite in2="hardAlpha" operator="out"/>
<feColorMatrix type="matrix" values="0 0 0 0 0.283333 0 0 0 0 0.283333 0 0 0 0 0.283333 0 0 0 0.33 0"/>
<feBlend mode="normal" in2="BackgroundImageFix" result="effect1_dropShadow_3755_11592"/>
<feBlend mode="normal" in="SourceGraphic" in2="effect1_dropShadow_3755_11592" result="shape"/>
</filter>
</defs>
</svg>
