<svg width="61" height="62" viewBox="0 0 61 62" fill="none" xmlns="http://www.w3.org/2000/svg">
<path d="M30.5026 5.99066C23.7617 5.99066 17.2969 8.66848 12.5303 13.435C7.76376 18.2016 5.08594 24.6664 5.08594 31.4073C5.08594 38.1482 7.76376 44.6131 12.5303 49.3796C17.2969 54.1462 23.7617 56.824 30.5026 56.824C37.2435 56.824 43.7084 54.1462 48.4749 49.3796C53.2414 44.6131 55.9193 38.1482 55.9193 31.4073C55.9193 24.6664 53.2414 18.2016 48.4749 13.435C43.7084 8.66848 37.2435 5.99066 30.5026 5.99066ZM33.0443 44.1157C33.0443 44.7898 32.7765 45.4362 32.2998 45.9129C31.8232 46.3895 31.1767 46.6573 30.5026 46.6573C29.8285 46.6573 29.182 46.3895 28.7054 45.9129C28.2287 45.4362 27.9609 44.7898 27.9609 44.1157C27.9609 43.4416 28.2287 42.7951 28.7054 42.3184C29.182 41.8418 29.8285 41.574 30.5026 41.574C31.1767 41.574 31.8232 41.8418 32.2998 42.3184C32.7765 42.7951 33.0443 43.4416 33.0443 44.1157ZM25.4193 25.0684C25.4193 25.7425 25.1515 26.389 24.6748 26.8656C24.1982 27.3423 23.5517 27.6101 22.8776 27.6101C22.2035 27.6101 21.557 27.3423 21.0804 26.8656C20.6037 26.389 20.3359 25.7425 20.3359 25.0684C20.3359 22.0743 21.7186 19.7512 23.7418 18.2415C25.6938 16.7927 28.1643 16.1472 30.5026 16.1472C32.8409 16.1472 35.3064 16.7927 37.2634 18.2415C39.2866 19.7462 40.6693 22.0743 40.6693 25.0633C40.6693 27.2441 39.983 28.9012 38.8037 30.1772C37.8734 31.1837 36.6789 31.8699 35.8554 32.3376L35.5961 32.4901C34.6455 33.0492 34.0914 33.4305 33.7153 33.9236C33.3899 34.3404 33.0443 35.0419 33.0443 36.4856C33.0443 37.1597 32.7765 37.8062 32.2998 38.2828C31.8232 38.7595 31.1767 39.0272 30.5026 39.0272C29.8285 39.0272 29.182 38.7595 28.7054 38.2828C28.2287 37.8062 27.9609 37.1597 27.9609 36.4856C27.9609 34.1218 28.5709 32.2817 29.6791 30.8329C30.7263 29.4604 32.0784 28.6572 33.0341 28.0981L33.1764 28.0167C34.1779 27.4372 34.6913 27.1373 35.0674 26.7256C35.3216 26.4562 35.5859 26.0546 35.5859 25.0633C35.6069 24.5288 35.4937 23.9976 35.2567 23.5181C35.0196 23.0386 34.6662 22.6261 34.2287 22.3183C33.3239 21.6473 31.9768 21.2356 30.5026 21.2356C29.0284 21.2356 27.6864 21.6524 26.7765 22.3285C26.339 22.6363 25.9856 23.0488 25.7485 23.5283C25.5115 24.0078 25.3983 24.539 25.4193 25.0735" fill="#E98872"/>
</svg>

