<svg width="62" height="62" viewBox="0 0 32 32" fill="none" xmlns="http://www.w3.org/2000/svg">
<path d="M16.0003 2.66675C12.4641 2.66675 9.07272 4.07151 6.57223 6.57199C4.07175 9.07248 2.66699 12.4639 2.66699 16.0001C2.66699 19.5363 4.07175 22.9277 6.57223 25.4282C9.07272 27.9287 12.4641 29.3334 16.0003 29.3334C19.5365 29.3334 22.9279 27.9287 25.4284 25.4282C27.9289 22.9277 29.3337 19.5363 29.3337 16.0001C29.3337 12.4639 27.9289 9.07248 25.4284 6.57199C22.9279 4.07151 19.5365 2.66675 16.0003 2.66675ZM17.3337 22.6667C17.3337 23.0204 17.1932 23.3595 16.9431 23.6096C16.6931 23.8596 16.3539 24.0001 16.0003 24.0001C15.6467 24.0001 15.3076 23.8596 15.0575 23.6096C14.8075 23.3595 14.667 23.0204 14.667 22.6667C14.667 22.3131 14.8075 21.974 15.0575 21.7239C15.3076 21.4739 15.6467 21.3334 16.0003 21.3334C16.3539 21.3334 16.6931 21.4739 16.9431 21.7239C17.1932 21.974 17.3337 22.3131 17.3337 22.6667ZM13.3337 12.6747C13.3337 13.0284 13.1932 13.3675 12.9431 13.6176C12.6931 13.8676 12.3539 14.0081 12.0003 14.0081C11.6467 14.0081 11.3076 13.8676 11.0575 13.6176C10.8075 13.3675 10.667 13.0284 10.667 12.6747C10.667 11.1041 11.3923 9.88541 12.4537 9.09341C13.4777 8.33341 14.7737 7.99475 16.0003 7.99475C17.227 7.99475 18.5203 8.33341 19.547 9.09341C20.6083 9.88275 21.3337 11.1041 21.3337 12.6721C21.3337 13.8161 20.9737 14.6854 20.355 15.3547C19.867 15.8827 19.2403 16.2427 18.8083 16.4881L18.6723 16.5681C18.1737 16.8614 17.883 17.0614 17.6857 17.3201C17.515 17.5387 17.3337 17.9067 17.3337 18.6641C17.3337 19.0177 17.1932 19.3568 16.9431 19.6069C16.6931 19.8569 16.3539 19.9974 16.0003 19.9974C15.6467 19.9974 15.3076 19.8569 15.0575 19.6069C14.8075 19.3568 14.667 19.0177 14.667 18.6641C14.667 17.4241 14.987 16.4587 15.5683 15.6987C16.1177 14.9787 16.827 14.5574 17.3283 14.2641L17.403 14.2214C17.9283 13.9174 18.1977 13.7601 18.395 13.5441C18.5283 13.4027 18.667 13.1921 18.667 12.6721C18.678 12.3917 18.6186 12.113 18.4943 11.8615C18.3699 11.6099 18.1845 11.3935 17.955 11.2321C17.4803 10.8801 16.7737 10.6641 16.0003 10.6641C15.227 10.6641 14.523 10.8827 14.0457 11.2374C13.8162 11.3989 13.6308 11.6153 13.5064 11.8668C13.382 12.1183 13.3226 12.397 13.3337 12.6774" fill="#156A85"/>
</svg>
