<svg width="32" height="32" viewBox="0 0 32 32" fill="none" xmlns="http://www.w3.org/2000/svg">
<rect width="32" height="32" fill="white"/>
<circle cx="16.43" cy="16.43" r="10.28" stroke="#156A85" stroke-width="2.3"/>
<path d="M14.65 22.0355H14.6493L14.6507 22.047L14.6719 22.2301C14.6732 22.49 14.7634 22.7011 14.9508 22.848L14.9507 22.8481L14.9541 22.8506C15.1337 22.9796 15.301 23.0581 15.45 23.0581C15.5429 23.0581 15.6273 23.0708 15.7039 23.0953L15.7188 23.1H15.7344H15.9531H15.9637L15.974 23.0978L16.1608 23.058C16.449 23.0551 16.6914 22.9366 16.8819 22.7089C17.0737 22.4939 17.1687 22.2325 17.1687 21.9306V21.6581C17.1687 21.36 17.0831 21.1108 16.9034 20.9211C16.7362 20.7148 16.5025 20.6145 16.2156 20.6145C16.1167 20.6145 16.0455 20.6076 15.9983 20.5963L15.9868 20.5935H15.975H15.8437C15.4662 20.5935 15.1643 20.6784 14.9565 20.8656C14.7467 21.0547 14.65 21.3323 14.65 21.679V22.0355ZM17.9987 10.1782L17.9987 10.1782L17.9977 10.1779C17.7473 10.0931 17.5105 10.0292 17.2874 9.98623C17.0618 9.92882 16.8358 9.9 16.6094 9.9H16.2375C15.8345 9.9 15.432 9.95718 15.0301 10.0712C14.6437 10.171 14.293 10.3138 13.9786 10.5002C13.6643 10.6726 13.4066 10.8753 13.2081 11.1095C13.0069 11.3469 12.9 11.5996 12.9 11.8661V12.0129C12.9 12.2506 12.9561 12.4475 13.0859 12.5848C13.2168 12.7232 13.406 12.7839 13.6344 12.7839C13.7666 12.7839 13.9289 12.7322 14.1151 12.643C14.3037 12.5526 14.527 12.4186 14.7843 12.2424C15.3135 11.886 15.7973 11.7145 16.2375 11.7145C16.7004 11.7145 17.0869 11.8352 17.4025 12.0719L17.4024 12.072L17.4063 12.0747C17.7243 12.2906 17.8875 12.6201 17.8875 13.0823C17.8875 13.3118 17.8593 13.5186 17.8042 13.7037L17.8039 13.7036L17.8024 13.7104C17.7614 13.894 17.6858 14.0794 17.5743 14.2667C17.4621 14.4412 17.3138 14.6243 17.1282 14.8159L17.1281 14.8158L17.1255 14.8188C16.9519 15.0129 16.7418 15.2351 16.4949 15.4858C15.9823 15.9912 15.6111 16.4312 15.3862 16.8049C15.1567 17.1862 15.0438 17.6309 15.0438 18.1355C15.0438 18.5543 15.1043 18.8848 15.2378 19.1137C15.3763 19.3509 15.5898 19.4726 15.8656 19.4726H16.0406C16.158 19.4726 16.2543 19.4658 16.3242 19.4494C16.4171 19.4311 16.4943 19.3835 16.5404 19.3013C16.5949 19.2282 16.6338 19.1229 16.663 18.9968C16.6926 18.8693 16.7293 18.6933 16.7731 18.4692C16.8168 18.246 16.853 18.0725 16.8818 17.9484C16.9073 17.8382 16.9587 17.7325 17.0381 17.631L17.0383 17.6311L17.0415 17.6265C17.1226 17.5098 17.2474 17.376 17.4191 17.2251C17.5948 17.0708 17.8432 16.8467 18.1639 16.5532C18.8089 15.9771 19.29 15.4392 19.603 14.9394C19.936 14.4311 20.1 13.8174 20.1 13.1032C20.1 12.381 19.9263 11.7705 19.5726 11.2783C19.219 10.7863 18.6915 10.421 17.9987 10.1782Z" fill="#156A85" stroke="#156A85" stroke-width="0.2"/>
</svg>
