<svg width="40" height="40" viewBox="0 0 24 24" fill="none" xmlns="http://www.w3.org/2000/svg">
<circle cx="12" cy="12" r="12" fill="#156A85"/>
<path d="M7.93534 17.445L19.5937 12.5958C19.7143 12.5459 19.817 12.4628 19.8893 12.3568C19.9615 12.2508 20 12.1264 20 11.9993C20 11.8722 19.9615 11.7479 19.8893 11.6419C19.817 11.5358 19.7143 11.4527 19.5937 11.4029L7.93534 6.55369C7.83439 6.51096 7.72407 6.49329 7.61433 6.50228C7.50458 6.51127 7.39887 6.54662 7.30672 6.60516C7.21458 6.66369 7.1389 6.74357 7.08652 6.83757C7.03414 6.93158 7.0067 7.03676 7.00668 7.14363L7 10.1323C7 10.4564 7.2472 10.7352 7.58125 10.7741L17.0215 11.9993L7.58125 13.2181C7.2472 13.2635 7 13.5423 7 13.8664L7.00668 16.855C7.00668 17.3153 7.4944 17.633 7.93534 17.445Z" fill="white"/>
</svg>
