<svg width="32" height="32" viewBox="0 0 32 32" fill="none" xmlns="http://www.w3.org/2000/svg">
<circle cx="16" cy="16" r="12" fill="#156A85"/>
<path d="M11.9353 21.445L23.5937 16.5958C23.7143 16.5459 23.817 16.4628 23.8893 16.3568C23.9615 16.2508 24 16.1264 24 15.9993C24 15.8722 23.9615 15.7479 23.8893 15.6419C23.817 15.5358 23.7143 15.4527 23.5937 15.4029L11.9353 10.5537C11.8344 10.511 11.7241 10.4933 11.6143 10.5023C11.5046 10.5113 11.3989 10.5466 11.3067 10.6052C11.2146 10.6637 11.1389 10.7436 11.0865 10.8376C11.0341 10.9316 11.0067 11.0368 11.0067 11.1436L11 14.1323C11 14.4564 11.2472 14.7352 11.5812 14.7741L21.0215 15.9993L11.5812 17.2181C11.2472 17.2635 11 17.5423 11 17.8664L11.0067 20.855C11.0067 21.3153 11.4944 21.633 11.9353 21.445Z" fill="white"/>
</svg>
