<svg width="32" height="32" viewBox="0 0 32 32" fill="none" xmlns="http://www.w3.org/2000/svg">
<path d="M12.3634 20.5747C12.4375 19.782 12.6491 19.0083 12.9887 18.2881H3.43174C2.52211 18.2881 1.6497 18.6491 1.00621 19.2916C0.362722 19.9342 0.000808555 20.8058 0 21.7149V22.596C0 23.9558 0.488069 25.2729 1.37269 26.3079C3.75661 29.1037 7.3973 30.4832 12.1956 30.4832C14.3523 30.4832 16.271 30.2038 17.9518 29.6448L16.0987 27.7927C14.9354 28.062 13.6344 28.1966 12.1956 28.1966C8.01959 28.1966 5.02101 27.061 3.10992 24.8232C2.57883 24.2025 2.28678 23.4127 2.2863 22.596V21.7149C2.2867 21.412 2.4074 21.1216 2.62188 20.9075C2.83636 20.6934 3.12709 20.5732 3.43021 20.5732L12.3634 20.5747ZM12.1956 0C14.2182 0 16.1579 0.803025 17.5881 2.23242C19.0182 3.66181 19.8217 5.60048 19.8217 7.62195C19.8217 9.64342 19.0182 11.5821 17.5881 13.0115C16.1579 14.4409 14.2182 15.2439 12.1956 15.2439C10.1731 15.2439 8.23334 14.4409 6.80317 13.0115C5.37301 11.5821 4.56955 9.64342 4.56955 7.62195C4.56955 5.60048 5.37301 3.66181 6.80317 2.23242C8.23334 0.803025 10.1731 0 12.1956 0ZM12.1956 2.28659C10.7798 2.28659 9.42203 2.8487 8.42091 3.84928C7.41979 4.84985 6.85737 6.20692 6.85737 7.62195C6.85737 9.03698 7.41979 10.394 8.42091 11.3946C9.42203 12.3952 10.7798 12.9573 12.1956 12.9573C13.6114 12.9573 14.9692 12.3952 15.9703 11.3946C16.9715 10.394 17.5339 9.03698 17.5339 7.62195C17.5339 6.20692 16.9715 4.84985 15.9703 3.84928C14.9692 2.8487 13.6114 2.28659 12.1956 2.28659ZM22.9392 32C22.636 31.9997 22.3452 31.8791 22.1309 31.6646L15.4062 24.9451C14.4238 23.9521 13.8746 22.6108 13.8785 21.2143C13.8825 19.8178 14.4393 18.4796 15.4273 17.4921C16.4153 16.5046 17.7542 15.9481 19.1515 15.9442C20.5487 15.9402 21.8908 16.4892 22.8843 17.471L22.9392 17.5259L22.9942 17.471C23.9877 16.4892 25.3298 15.9402 26.727 15.9442C28.1243 15.9481 29.4632 16.5046 30.4512 17.4921C31.4392 18.4796 31.996 19.8178 32 21.2143C32.0039 22.6108 31.4547 23.9521 30.4723 24.9451L23.7476 31.6646C23.5333 31.8791 23.2425 31.9997 22.9392 32Z" fill="#156A85"/>
</svg>
