<svg width="53" height="53" viewBox="0 0 53 53" fill="none" xmlns="http://www.w3.org/2000/svg">
<circle cx="26.5" cy="26.5" r="26.5" fill="#156A85"/>
<path d="M40.4938 25.7918C41.0907 24.9836 41.4211 23.9935 41.4211 22.9632C41.4211 21.3287 40.5293 19.7816 39.0941 18.9188C38.7246 18.6968 38.3039 18.5799 37.8755 18.5803H29.3563L29.5695 14.1063C29.6192 13.0251 29.2462 11.9986 28.5214 11.2159C28.1658 10.8301 27.7367 10.5232 27.2607 10.3141C26.7847 10.1049 26.2719 9.99805 25.7539 10C23.9066 10 22.2724 11.2741 21.7821 13.0979L18.7304 24.4194H14.1368C13.508 24.4194 13 24.9399 13 25.5843V38.8351C13 39.4794 13.508 40 14.1368 40H35.4988C35.8257 40 36.1454 39.9345 36.4403 39.8034C38.1313 39.0644 39.222 37.3717 39.222 35.4933C39.222 35.0346 39.158 34.5832 39.0301 34.1463C39.627 33.3382 39.9574 32.348 39.9574 31.3178C39.9574 30.8591 39.8934 30.4077 39.7655 29.9709C40.3624 29.1627 40.6928 28.1726 40.6928 27.1423C40.6857 26.6837 40.6217 26.2286 40.4938 25.7918ZM15.5579 37.379V27.0404H18.4355V37.379H15.5579ZM38.1668 24.5286L37.3888 25.2203L37.8826 26.1449C38.0453 26.4495 38.1297 26.7915 38.1278 27.1387C38.1278 27.7394 37.872 28.3109 37.4314 28.7041L36.6534 29.3957L37.1472 30.3204C37.3099 30.6249 37.3943 30.967 37.3924 31.3142C37.3924 31.9148 37.1366 32.4864 36.6961 32.8795L35.918 33.5712L36.4118 34.4958C36.5745 34.8004 36.6589 35.1424 36.657 35.4896C36.657 36.3051 36.188 37.0404 35.4633 37.3753H20.7092V26.9239L24.2441 13.8005C24.3352 13.4642 24.5309 13.1674 24.8014 12.9552C25.072 12.7431 25.4026 12.627 25.7433 12.6247C26.0133 12.6247 26.2797 12.7048 26.4929 12.8686C26.8446 13.138 27.0329 13.5457 27.0116 13.9789L26.6705 21.2013H37.84C38.4724 21.5981 38.8632 22.2679 38.8632 22.9632C38.8632 23.5639 38.6074 24.1318 38.1668 24.5286Z" fill="white"/>
</svg>
