<svg width="32" height="32" viewBox="0 0 32 32" fill="none" xmlns="http://www.w3.org/2000/svg">
<path d="M16.0008 4.57153C13.7405 4.57153 11.5309 5.24181 9.65147 6.49759C7.77205 7.75338 6.30722 9.53828 5.44222 11.6266C4.57722 13.7149 4.35089 16.0128 4.79187 18.2297C5.23284 20.4466 6.32131 22.483 7.91962 24.0813C9.51794 25.6796 11.5543 26.7681 13.7712 27.2091C15.9882 27.65 18.2861 27.4237 20.3744 26.5587C22.4627 25.6937 24.2476 24.2289 25.5033 22.3495C26.7591 20.4701 27.4294 18.2605 27.4294 16.0001C27.4262 12.97 26.2211 10.065 24.0785 7.92242C21.9359 5.77984 19.0309 4.57473 16.0008 4.57153ZM16.0008 25.6704C14.0882 25.6704 12.2186 25.1033 10.6283 24.0407C9.03802 22.9781 7.79855 21.4678 7.06662 19.7008C6.3347 17.9338 6.14319 15.9894 6.51632 14.1135C6.88946 12.2377 7.81047 10.5146 9.16289 9.16215C10.5153 7.80973 12.2384 6.88872 14.1143 6.51559C15.9901 6.14246 17.9345 6.33396 19.7015 7.06588C21.4685 7.79781 22.9788 9.03728 24.0414 10.6276C25.104 12.2178 25.6712 14.0875 25.6712 16.0001C25.6683 18.5639 24.6485 21.0219 22.8356 22.8348C21.0227 24.6478 18.5647 25.6675 16.0008 25.6704ZM23.0338 16.0001C23.0338 16.2333 22.9412 16.4569 22.7763 16.6217C22.6115 16.7866 22.3878 16.8792 22.1547 16.8792H16.0008C15.7677 16.8792 15.5441 16.7866 15.3792 16.6217C15.2143 16.4569 15.1217 16.2333 15.1217 16.0001V9.84626C15.1217 9.6131 15.2143 9.38949 15.3792 9.22463C15.5441 9.05976 15.7677 8.96714 16.0008 8.96714C16.234 8.96714 16.4576 9.05976 16.6225 9.22463C16.7873 9.38949 16.88 9.6131 16.88 9.84626V15.121H22.1547C22.3878 15.121 22.6115 15.2136 22.7763 15.3785C22.9412 15.5433 23.0338 15.7669 23.0338 16.0001Z" fill="#156A85" stroke="#156A85" stroke-width="0.571429"/>
</svg>
