<svg width="32" height="32" viewBox="0 0 32 32" fill="none" xmlns="http://www.w3.org/2000/svg">
<path d="M16 4.57129C13.7396 4.57129 11.53 5.24156 9.65061 6.49735C7.77119 7.75314 6.30637 9.53804 5.44136 11.6263C4.57636 13.7146 4.35004 16.0125 4.79101 18.2295C5.23199 20.4464 6.32045 22.4828 7.91877 24.0811C9.51708 25.6794 11.5535 26.7679 13.7704 27.2088C15.9873 27.6498 18.2852 27.4235 20.3735 26.5585C22.4618 25.6935 24.2467 24.2286 25.5025 22.3492C26.7583 20.4698 27.4286 18.2602 27.4286 15.9999C27.4254 12.9698 26.2202 10.0648 24.0777 7.92217C21.9351 5.77959 19.03 4.57449 16 4.57129ZM16 25.6702C14.0874 25.6702 12.2177 25.103 10.6274 24.0404C9.03716 22.9779 7.79769 21.4676 7.06577 19.7005C6.33384 17.9335 6.14234 15.9891 6.51547 14.1133C6.8886 12.2374 7.80961 10.5143 9.16203 9.1619C10.5145 7.80948 12.2375 6.88847 14.1134 6.51534C15.9893 6.14221 17.9336 6.33372 19.7007 7.06564C21.4677 7.79756 22.978 9.03703 24.0406 10.6273C25.1032 12.2176 25.6703 14.0872 25.6703 15.9999C25.6674 18.5637 24.6476 21.0217 22.8347 22.8346C21.0218 24.6475 18.5638 25.6673 16 25.6702ZM23.033 15.9999C23.033 16.233 22.9403 16.4566 22.7755 16.6215C22.6106 16.7864 22.387 16.879 22.1538 16.879H16C15.7668 16.879 15.5432 16.7864 15.3784 16.6215C15.2135 16.4566 15.1209 16.233 15.1209 15.9999V9.84601C15.1209 9.61286 15.2135 9.38925 15.3784 9.22438C15.5432 9.05951 15.7668 8.96689 16 8.96689C16.2331 8.96689 16.4568 9.05951 16.6216 9.22438C16.7865 9.38925 16.8791 9.61286 16.8791 9.84601V15.1207H22.1538C22.387 15.1207 22.6106 15.2134 22.7755 15.3782C22.9403 15.5431 23.033 15.7667 23.033 15.9999Z" fill="#156A85" stroke="#156A85" stroke-width="0.571429"/>
</svg>
