<svg width="32" height="32" viewBox="0 0 32 32" fill="none" xmlns="http://www.w3.org/2000/svg">
<path d="M25.5543 20.9831C25.4627 20.8733 25.3728 20.7635 25.2845 20.6575C24.0708 19.1965 23.9375 18.3147 23.9375 14.1786C23.9375 12.0372 23.4228 10.2802 22.4083 8.96245C21.6603 7.98896 21.25 7.25047 19.9172 6.7047C19.9 6.6952 19.8847 6.68274 19.8719 6.66791C19.3925 5.07013 17.4797 4 16.0001 4C14.5206 4 12.6083 5.07013 12.1289 6.66626C12.1161 6.68057 12.101 6.69264 12.0842 6.70195C8.97389 7.97633 8.06328 10.4213 8.06328 14.1769C8.06328 18.3147 7.93108 19.1965 6.71631 20.6559C6.62804 20.7619 6.53812 20.8695 6.44654 20.9815C6.20999 21.2654 6.06011 21.6109 6.01465 21.9769C5.96919 22.343 6.03005 22.7144 6.19002 23.0471C6.5304 23.7609 7.25584 24.204 8.0839 24.204H23.9224C24.7466 24.204 25.4671 23.7614 25.8086 23.0509C25.9693 22.7181 26.0307 22.3465 25.9856 21.98C25.9405 21.6135 25.7909 21.2675 25.5543 20.9831ZM16.0001 28C16.7973 27.9994 17.5795 27.784 18.2636 27.3767C18.9478 26.9695 19.5084 26.3855 19.8861 25.6868C19.9039 25.6533 19.9127 25.6158 19.9116 25.5779C19.9105 25.5401 19.8996 25.5031 19.88 25.4707C19.8603 25.4383 19.8326 25.4114 19.7994 25.3928C19.7663 25.3742 19.7289 25.3644 19.6908 25.3645H12.3106C12.2725 25.3644 12.235 25.374 12.2018 25.3926C12.1685 25.4112 12.1407 25.438 12.121 25.4705C12.1013 25.5029 12.0903 25.5399 12.0892 25.5778C12.0881 25.6157 12.0969 25.6533 12.1147 25.6868C12.4924 26.3854 13.0529 26.9693 13.737 27.3766C14.421 27.7838 15.2031 27.9993 16.0001 28Z" fill="#156A85"/>
</svg>
