<svg width="32" height="32" viewBox="0 0 32 32" fill="none" xmlns="http://www.w3.org/2000/svg">
<path d="M12.3065 25.5832L12.3078 25.5824L12.3098 25.5813L12.3106 25.5809L12.711 25.3645H12.7213L12.3106 25.5827L12.3098 25.5831L12.3086 25.5838L12.308 25.5841M12.3065 25.5832L12.3048 25.584L12.1147 25.6868L12.3079 25.5841M12.3065 25.5832L12.308 25.5841M12.3065 25.5832L12.308 25.5841M12.3079 25.5841L12.308 25.5841M12.3079 25.5841L12.308 25.5841M12.3079 25.5841L12.308 25.5841M12.308 25.5841L12.308 25.5841M12.308 25.5841L12.308 25.5841M12.308 25.5841L12.3088 25.5841L12.308 25.5841ZM12.308 25.5841L12.3092 25.5848L12.308 25.5841ZM12.6286 26.1564C12.5745 26.1867 12.5166 26.2089 12.4568 26.2227C12.4609 26.2283 12.4651 26.2339 12.4693 26.2395H13.6556C13.3711 25.9889 13.1282 25.6936 12.937 25.3645H12.9263C12.9534 25.4407 12.9662 25.5215 12.9639 25.6031L12.3106 25.5842L12.9639 25.6031C12.9606 25.717 12.9277 25.8278 12.8688 25.9248L12.3106 25.5857L12.8688 25.9248C12.8098 26.0218 12.727 26.1015 12.6286 26.1564ZM16.0002 27.125C16 27.125 15.9997 27.125 15.9994 27.125L16.0001 28L16.001 27.125C16.0007 27.125 16.0005 27.125 16.0002 27.125ZM18.3452 26.2395H19.5315C19.5357 26.2339 19.5399 26.2283 19.5441 26.2227C19.4838 26.2088 19.4256 26.1864 19.3711 26.1558C19.273 26.1007 19.1904 26.021 19.1316 25.9241C19.0729 25.8272 19.0402 25.7164 19.0369 25.6026C19.0347 25.5212 19.0475 25.4405 19.0745 25.3645H19.0638C18.8727 25.6936 18.6298 25.9889 18.3452 26.2395ZM19.6908 25.5812L19.2898 25.3645H19.2795L19.6908 25.583L19.691 25.5831L19.6922 25.5838L19.6928 25.5841L19.6929 25.5841L19.8861 25.6868L19.696 25.584L19.6944 25.5832L19.693 25.5824L19.691 25.5813L19.6908 25.5812ZM24.6114 21.2167L24.6122 21.2176C24.6403 21.2513 24.6851 21.3055 24.7321 21.3624C24.7867 21.4283 24.8443 21.4979 24.8822 21.5434C25.0113 21.6989 25.0927 21.8875 25.1172 22.0868C25.1417 22.2864 25.1083 22.4889 25.0206 22.6705L25.02 22.6719C24.8313 23.0643 24.4271 23.329 23.9224 23.329H8.0839C7.57284 23.329 7.16645 23.0618 6.97982 22.6705L6.9786 22.6679C6.89132 22.4864 6.85823 22.2841 6.88298 22.0848C6.90773 21.8855 6.98938 21.6969 7.11881 21.5416L7.11883 21.5416L7.12396 21.5353C7.20144 21.4406 7.27765 21.3491 7.35557 21.2556C7.36656 21.2424 7.37757 21.2292 7.38863 21.2159L7.38882 21.2157C8.06211 20.4068 8.48233 19.6922 8.70319 18.5932C8.90852 17.5714 8.93828 16.2241 8.93828 14.1769C8.93828 12.3533 9.16252 10.9613 9.6909 9.89849C10.202 8.8704 11.0338 8.07792 12.4159 7.51162L12.4634 7.49218L12.5082 7.46733C12.6109 7.41045 12.7034 7.33663 12.7817 7.24886L12.911 7.10396L12.9669 6.91796C13.1305 6.37316 13.5617 5.8588 14.1643 5.46955C14.7673 5.07996 15.4528 4.875 16.0001 4.875C16.5475 4.875 17.2331 5.07997 17.8362 5.4697C18.4388 5.85907 18.8702 6.37376 19.0339 6.91937L19.0873 7.09763L19.2087 7.23869C19.2892 7.33221 19.3856 7.41056 19.4934 7.4702L19.5382 7.49502L19.5856 7.51444C20.5089 7.89253 20.8331 8.32444 21.4152 9.10013C21.5074 9.22295 21.606 9.35439 21.7145 9.4956L21.715 9.49623C22.5815 10.6217 23.0625 12.1741 23.0625 14.1786C23.0625 16.2251 23.0926 17.5719 23.2981 18.5937C23.519 19.6925 23.9391 20.4072 24.6114 21.2167Z" stroke="#156A85" stroke-width="1.75"/>
</svg>
